<svg width="520" height="322" viewBox="0 0 520 322" fill="none" xmlns="http://www.w3.org/2000/svg">
<rect width="520" height="322" fill="white"/>
<g id="undraw_junior_soccer_6sop 1">
<g id="leg">
<path id="Vector" d="M208.048 160C208.048 160 189.845 173.248 191.058 185.234C192.272 197.22 200.16 230.024 200.16 230.024L216.543 227.5C216.543 227.5 218.363 202.267 212.296 192.804L241.421 175.771L208.048 160Z" fill="#FFB8B8"/>
<path id="Vector_2" d="M216.319 225.568L198.723 229.353L201.849 242.716C203.388 249.293 203.563 256.135 202.363 262.788V262.788C202.363 262.788 220.567 267.835 220.567 265.311C220.567 262.788 216.319 252.694 217.533 245.755C218.746 238.816 216.319 225.568 216.319 225.568Z" fill="#6C63FF"/>
<path id="Vector_3" d="M204.022 242.534C204.022 242.534 207.309 236.663 210.623 238.216C213.937 239.77 216.071 240.953 216.071 240.953C216.071 240.953 207.152 238.571 204.022 242.534Z" fill="#2F2E41"/>
<path id="Vector_4" d="M226.754 272.687C226.148 270.164 221.106 258.723 220.896 260.658C220.686 262.593 210.978 265.748 207.337 261.963C207.337 261.963 202.483 257.547 200.662 261.963C198.842 266.379 195.201 273.949 195.201 273.949C195.201 273.949 178.818 282.15 181.245 286.566C181.736 287.459 183.096 287.835 184.953 287.869C184.91 287.985 184.887 288.109 184.886 288.235V288.682C184.886 288.957 184.991 289.221 185.179 289.416C185.366 289.61 185.62 289.72 185.885 289.72H186.315C186.579 289.72 186.833 289.61 187.021 289.416C187.208 289.221 187.313 288.957 187.313 288.682V288.235C187.312 288.074 187.275 287.915 187.204 287.772C187.7 287.727 188.215 287.667 188.745 287.595C188.604 287.776 188.528 288.002 188.527 288.235V288.682C188.527 288.957 188.632 289.221 188.819 289.416C189.007 289.61 189.26 289.72 189.525 289.72H189.955C190.22 289.72 190.474 289.61 190.661 289.416C190.849 289.221 190.954 288.957 190.954 288.682V288.235C190.953 288.05 190.905 287.868 190.814 287.709C190.724 287.55 190.593 287.42 190.437 287.331C191.834 287.088 193.292 286.78 194.741 286.438C194.646 286.599 194.595 286.784 194.595 286.973V287.42C194.595 287.695 194.7 287.959 194.887 288.154C195.074 288.349 195.328 288.458 195.593 288.458H196.023C196.288 288.458 196.542 288.349 196.729 288.154C196.917 287.959 197.022 287.695 197.022 287.42V286.973C197.022 286.772 196.965 286.576 196.86 286.408C196.755 286.239 196.605 286.107 196.428 286.025C197.515 285.75 198.581 285.463 199.595 285.178C199.5 285.338 199.45 285.523 199.449 285.711V286.158C199.449 286.434 199.554 286.698 199.741 286.892C199.929 287.087 200.183 287.196 200.447 287.196H200.877C201.142 287.196 201.396 287.087 201.584 286.892C201.771 286.698 201.876 286.434 201.876 286.158V285.711C201.876 285.49 201.807 285.276 201.681 285.098C201.554 284.921 201.377 284.79 201.174 284.725C204.737 283.681 207.337 282.78 207.337 282.78C207.337 282.78 210.356 281.638 214.012 280.095V280.481C214.012 280.756 214.117 281.02 214.304 281.215C214.492 281.409 214.746 281.519 215.01 281.519H215.44C215.705 281.519 215.959 281.409 216.146 281.215C216.334 281.02 216.439 280.756 216.439 280.481V280.034C216.439 279.876 216.404 279.721 216.337 279.58C216.27 279.439 216.173 279.315 216.053 279.219C216.787 278.898 217.527 278.569 218.259 278.233V278.588C218.259 278.863 218.364 279.127 218.552 279.322C218.739 279.517 218.993 279.626 219.258 279.626H219.688C219.953 279.626 220.207 279.517 220.394 279.322C220.581 279.127 220.686 278.863 220.686 278.588V278.141C220.686 277.974 220.647 277.81 220.573 277.662C220.499 277.514 220.391 277.387 220.259 277.291C221.051 276.907 221.813 276.524 222.517 276.148C222.513 276.181 222.507 276.214 222.507 276.248V276.696C222.507 276.971 222.612 277.235 222.799 277.43C222.987 277.624 223.241 277.734 223.505 277.734H223.935C224.2 277.734 224.454 277.624 224.641 277.43C224.829 277.235 224.934 276.971 224.934 276.696V276.248C224.934 276.009 224.854 275.777 224.709 275.592C224.563 275.406 224.36 275.279 224.135 275.231C225.831 274.207 226.901 273.298 226.754 272.687Z" fill="#2F2E41"/>
</g>
<path id="Vector_5" d="M233.189 316.266C229.305 316.263 225.484 317.289 222.089 319.249H244.26C240.875 317.29 237.063 316.263 233.189 316.266V316.266Z" fill="#E6E6E6"/>
<path id="Vector_6" d="M276.213 313.285C269.725 313.277 263.395 315.36 258.094 319.248H294.307C289.013 315.365 282.692 313.281 276.213 313.285V313.285Z" fill="#E6E6E6"/>
<path id="Vector_7" d="M519.925 275.535C518.305 244.995 494.703 220.095 465.352 218.008C451.822 217.019 438.379 220.923 427.3 229.058C416.221 237.193 408.188 249.059 404.56 262.647C403.848 262.62 403.136 262.59 402.417 262.59C389.714 262.593 377.353 266.871 367.183 274.786C357.013 282.701 349.582 293.826 346.001 306.497C337.583 302.652 328.176 301.818 319.253 304.125C310.331 306.432 302.396 311.751 296.692 319.248H480.107C502.641 319.248 520.886 299.844 519.967 276.437C519.955 276.137 519.941 275.836 519.925 275.535Z" fill="#E6E6E6"/>
<path id="Vector_8" d="M515.162 318.618H0V319.879H515.162V318.618Z" fill="#3F3D56"/>
<path id="Vector_9" d="M171.929 113.703C171.929 113.703 148.547 106.13 152.136 118.589C155.726 131.047 175.421 124.754 175.421 124.754L171.929 113.703Z" fill="#FFB8B8"/>
<path id="Vector_10" d="M261.31 66.9413C261.31 66.9413 249.327 49.9169 237.685 67.5904C226.02 85.2987 215.175 99.8361 215.175 99.8361L186.203 109.657L169.442 111.203L174.06 126.695L222.793 119.345C222.793 119.345 277.048 85.8385 261.31 66.9413Z" fill="#2F2E41"/>
<path id="Vector_11" d="M248.176 192.449C248.176 192.449 246.962 215.79 249.996 225.253C253.03 234.715 256.064 270.043 256.064 270.043H273.054C273.054 270.043 280.942 239.131 271.233 225.253C271.233 225.253 268.2 206.958 276.695 198.126L248.176 192.449Z" fill="#FFB8B8"/>
<path id="Vector_12" d="M244.232 127.787C244.232 127.787 204.79 153.652 204.79 161.853L236.343 188.979L247.265 176.362L246.052 195.288L280.032 202.227C280.032 202.227 292.168 154.283 291.561 152.39C290.954 150.498 289.134 122.74 289.134 122.74L244.232 127.787Z" fill="#2F2E41"/>
<path id="Vector_13" d="M274.267 267.204L255.044 265.942C255.044 265.942 256.21 286.76 253.879 293.699C251.549 300.639 252.714 303.162 252.714 303.162L269.607 304.424L274.267 267.204Z" fill="#6C63FF"/>
<path id="Vector_14" d="M274.504 313.214C274.417 310.615 271.78 298.332 271.187 300.18C270.594 302.027 260.466 303.007 257.664 298.516C257.664 298.516 253.802 293.145 251.136 297.07C248.47 300.994 243.392 307.608 243.392 307.608C243.392 307.608 225.724 312.078 227.212 316.923C227.513 317.903 228.767 318.566 230.577 319.001C230.511 319.105 230.464 319.222 230.438 319.344L230.348 319.781C230.293 320.051 230.343 320.332 230.487 320.563C230.631 320.794 230.858 320.956 231.117 321.013L231.537 321.106C231.796 321.164 232.066 321.112 232.289 320.962C232.511 320.812 232.667 320.577 232.722 320.307L232.812 319.87C232.843 319.713 232.838 319.549 232.798 319.394C233.292 319.457 233.808 319.511 234.34 319.555C234.166 319.702 234.046 319.906 233.998 320.133L233.909 320.571C233.854 320.84 233.904 321.121 234.048 321.352C234.192 321.583 234.418 321.745 234.677 321.802L235.098 321.896C235.357 321.953 235.627 321.901 235.849 321.751C236.071 321.601 236.227 321.366 236.283 321.097L236.372 320.659C236.409 320.479 236.398 320.291 236.341 320.116C236.284 319.94 236.183 319.784 236.048 319.664C237.463 319.729 238.95 319.744 240.436 319.724C240.311 319.86 240.225 320.03 240.186 320.215L240.096 320.652C240.041 320.921 240.091 321.202 240.235 321.433C240.379 321.664 240.606 321.826 240.865 321.884L241.285 321.977C241.544 322.034 241.815 321.982 242.037 321.833C242.259 321.683 242.415 321.447 242.47 321.178L242.56 320.741C242.6 320.545 242.584 320.34 242.515 320.153C242.446 319.966 242.325 319.803 242.169 319.686C243.288 319.652 244.387 319.602 245.436 319.543C245.311 319.68 245.225 319.849 245.187 320.033L245.097 320.47C245.042 320.74 245.092 321.021 245.236 321.252C245.38 321.483 245.606 321.645 245.865 321.702L246.286 321.795C246.545 321.853 246.815 321.801 247.037 321.651C247.26 321.501 247.415 321.266 247.471 320.996L247.56 320.559C247.604 320.343 247.58 320.118 247.492 319.917C247.404 319.716 247.257 319.55 247.071 319.442C250.766 319.194 253.489 318.877 253.489 318.877C253.489 318.877 256.671 318.414 260.556 317.698L260.478 318.074C260.423 318.344 260.473 318.625 260.617 318.856C260.761 319.087 260.988 319.249 261.247 319.306L261.667 319.399C261.926 319.457 262.197 319.405 262.419 319.255C262.641 319.105 262.797 318.87 262.852 318.6L262.942 318.163C262.973 318.009 262.97 317.85 262.933 317.697C262.896 317.545 262.825 317.403 262.727 317.283C263.51 317.128 264.3 316.966 265.083 316.797L265.012 317.144C264.957 317.413 265.007 317.694 265.151 317.925C265.295 318.156 265.521 318.319 265.78 318.376L266.201 318.469C266.46 318.527 266.73 318.475 266.953 318.325C267.175 318.175 267.331 317.94 267.386 317.67L267.475 317.233C267.509 317.07 267.504 316.9 267.461 316.74C267.418 316.579 267.338 316.431 267.228 316.309C268.079 316.105 268.902 315.895 269.665 315.68C269.655 315.712 269.642 315.743 269.635 315.777L269.546 316.214C269.491 316.483 269.54 316.764 269.685 316.995C269.829 317.226 270.055 317.388 270.314 317.446L270.735 317.539C270.994 317.596 271.264 317.544 271.486 317.395C271.708 317.245 271.864 317.009 271.92 316.74L272.009 316.303C272.057 316.069 272.026 315.825 271.921 315.612C271.815 315.399 271.643 315.23 271.432 315.135C273.297 314.501 274.525 313.844 274.504 313.214Z" fill="#2F2E41"/>
<path id="Vector_15" d="M244.232 45.7774C253.95 45.7774 261.828 37.5867 261.828 27.4829C261.828 17.3791 253.95 9.18842 244.232 9.18842C234.513 9.18842 226.635 17.3791 226.635 27.4829C226.635 37.5867 234.513 45.7774 244.232 45.7774Z" fill="#FFB8B8"/>
<path id="Vector_16" d="M260.008 25.5904C260.008 25.5904 269.717 38.2073 274.571 37.5764L253.333 54.6092C253.333 54.6092 250.906 43.8849 247.872 42.6232C244.838 41.3615 260.008 25.5904 260.008 25.5904Z" fill="#FFB8B8"/>
<path id="Vector_17" d="M297.932 119.271C297.932 119.271 297.931 49.6594 286.699 43.6629C275.473 37.6699 268.047 34.2494 268.047 34.2494C267.882 36.5335 267.258 38.7561 266.215 40.7737C265.172 42.7913 263.733 44.5589 261.992 45.9623C258.27 48.9498 254.561 51.427 252.49 51.435L252.423 51.1396L252.17 50.3896L246.052 60.2868C246.052 60.2868 240.591 61.5485 238.77 65.3336C237.786 67.3813 242.43 87.9955 239.681 106.654C237.348 122.484 227.52 136.774 227.241 138.512C226.771 141.448 238.716 133.754 244.095 130.157C244.175 130.249 244.232 130.311 244.232 130.311C244.232 130.311 241.198 131.572 247.265 129.68C250.704 128.607 255.504 128.548 259.02 128.698C259.016 129.794 259.041 130.664 259.098 131.257C259.705 137.565 290.044 146.397 294.291 144.505C298.539 142.612 297.932 119.271 297.932 119.271Z" fill="#2F2E41"/>
<path id="Vector_18" d="M276.695 143.243C276.695 143.243 258.491 160.276 270.627 163.43C282.762 166.584 287.617 145.766 287.617 145.766L276.695 143.243Z" fill="#FFB8B8"/>
<path id="Vector_19" d="M255.457 187.402C255.457 187.402 263.952 179.201 268.806 183.617C273.661 188.033 276.695 191.187 276.695 191.187C276.695 191.187 262.739 182.355 255.457 187.402Z" fill="#6C63FF"/>
<path id="Vector_20" d="M257.664 285.529C257.664 285.529 262.452 280.907 265.188 283.395C267.924 285.884 269.634 287.662 269.634 287.662C269.634 287.662 261.768 282.684 257.664 285.529Z" fill="#2F2E41"/>
<path id="Vector_21" d="M293.347 52.3185C287.332 39.7483 269.031 46.604 272.004 60.2991C272.049 60.5033 272.095 60.7095 272.144 60.9176C275.278 73.8815 280.4 86.236 287.313 97.5066L280.639 128.418L273.357 144.189L288.527 147.974L307.337 100.661C307.337 100.661 302.149 70.7127 293.347 52.3185Z" fill="#2F2E41"/>
<path id="Vector_22" opacity="0.2" d="M284.583 98.4528L273.054 143.874L282.762 122.425L284.583 98.4528Z" fill="black"/>
<path id="Vector_23" d="M255.283 6.15789C255.283 6.15789 245.556 -4.48856 235.765 2.21617C225.975 8.92089 221.33 15.4339 222.29 19.9688C223.25 24.5036 226.091 30.8114 226.091 30.8114C226.091 30.8114 224.325 21.4165 232.432 20.7212C240.539 20.026 251.74 14.4483 251.74 14.4483L259.316 31.269C259.316 31.269 260.387 27.3711 263.356 28.4891C266.326 29.6072 264.024 7.40489 255.283 6.15789Z" fill="#2F2E41"/>
<g id="football">
<path id="Vector_24" d="M196.108 237.019C196.108 238.617 195.98 240.212 195.726 241.788V241.794C195.029 246.034 193.415 250.053 191.006 253.55C188.596 257.046 185.454 259.927 181.817 261.976C178.18 264.026 174.143 265.189 170.01 265.379C165.877 265.569 161.756 264.78 157.96 263.073H157.953C156.83 262.569 155.741 261.985 154.695 261.325C151.452 259.29 148.652 256.576 146.471 253.356C144.29 250.136 142.776 246.481 142.025 242.621C141.673 240.776 141.497 238.9 141.497 237.019C141.497 236.161 141.534 235.309 141.607 234.47V234.464C142.236 227.22 145.517 220.503 150.77 215.701C156.024 210.898 162.851 208.375 169.842 208.652C176.833 208.93 183.455 211.987 188.342 217.192C193.228 222.398 196.006 229.355 196.102 236.628V236.634C196.108 236.766 196.108 236.886 196.108 237.019Z" fill="#6C63FF"/>
<path id="Vector_25" d="M175.524 227.537H163.295L157.18 216.529L161.328 209.055L161.57 208.987C166.821 207.528 172.366 207.689 177.53 209.451L177.75 209.527L181.639 216.529L175.524 227.537ZM163.995 226.275H174.824L180.238 216.529L176.931 210.575C172.133 208.993 167.004 208.842 162.127 210.139L158.581 216.529L163.995 226.275Z" fill="white"/>
<path id="Vector_26" d="M174.918 250.248H162.688L156.573 239.237L162.688 228.226H174.918L181.033 239.237L174.918 250.248ZM163.389 248.986H174.217L179.631 239.237L174.217 229.488H163.389L157.975 239.237L163.389 248.986Z" fill="white"/>
<path id="Vector_27" d="M168.803 266.038C164.989 266.045 161.215 265.233 157.718 263.651L157.094 263.37L163.295 252.197H175.524L181.464 262.893L180.874 263.187C177.109 265.073 172.982 266.048 168.803 266.038V266.038ZM158.829 262.768C162.165 264.163 165.738 264.844 169.334 264.771C172.929 264.697 176.474 263.869 179.754 262.338L174.824 253.458H163.996L158.829 262.768Z" fill="white"/>
<path id="Vector_28" d="M195.548 238.892H183.319L177.204 227.884L183.319 216.869H188.887L189.067 217.066C193.896 222.348 196.626 229.333 196.709 236.62V236.803L195.548 238.892ZM184.019 237.631H194.848L195.493 236.469C195.376 229.651 192.837 223.119 188.364 218.131H184.02L178.605 227.884L184.019 237.631Z" fill="white"/>
<path id="Vector_29" d="M183.15 261.926L177.204 251.225L183.319 240.211H195.548L196.333 241.618L196.324 241.9C195.661 245.917 194.193 249.745 192.016 253.134C189.838 256.524 187 259.4 183.684 261.575L183.15 261.926ZM178.605 251.225L183.566 260.151C186.571 258.075 189.141 255.389 191.122 252.253C193.102 249.118 194.453 245.599 195.091 241.907L194.848 241.472H184.02L178.605 251.225Z" fill="white"/>
<path id="Vector_30" d="M154.911 262.198L154.381 261.865C151.068 259.783 148.206 257.009 145.977 253.717C143.747 250.426 142.199 246.69 141.431 242.744L141.385 242.511L142.664 240.211H154.894L161.009 251.225L154.911 262.198ZM142.666 242.728C143.403 246.35 144.828 249.783 146.857 252.826C148.886 255.868 151.479 258.459 154.483 260.446L159.607 251.225L154.193 241.472H143.365L142.666 242.728Z" fill="white"/>
<path id="Vector_31" d="M154.894 237.631H142.665L141 234.64V234.47C141.599 227.321 144.732 220.659 149.792 215.777L149.966 215.608H154.894L161.009 226.622L154.894 237.631ZM143.364 236.369H154.193L159.607 226.622L154.193 216.869H150.445C145.764 221.463 142.844 227.666 142.228 234.327L143.364 236.369Z" fill="white"/>
</g>
</g>
</svg>
