<svg width="428" height="360" viewBox="0 0 428 360" fill="none" xmlns="http://www.w3.org/2000/svg">
<rect width="428" height="360" fill="white"/>
<g id="undraw_bike_ride_7xit 1" clip-path="url(#clip0)">
<path id="Vector" d="M421.199 68.2652C421.167 68.612 421.129 68.9589 421.081 69.3005H394.976V68.2652H421.199Z" fill="#3F3D56"/>
<path id="Vector_2" d="M118.378 354.175C118.538 354.247 118.704 354.32 118.87 354.382C118.72 354.335 118.57 354.289 118.426 354.242C116.308 353.564 114.206 352.844 112.12 352.083C108.767 350.867 105.458 349.547 102.194 348.123C99.8617 347.108 97.5513 346.044 95.2624 344.929C75.1744 335.151 57.228 321.707 42.4102 305.338C41.0624 303.847 39.7414 302.33 38.447 300.787C37.3455 299.478 36.267 298.149 35.2114 296.801C29.1669 289.102 23.8337 280.904 19.2736 272.3C6.27855 247.832 -0.331749 220.657 0.0196442 193.148C0.169279 183.83 1.18018 174.32 5.22355 165.867C8.56624 158.883 14.2674 152.687 21.445 149.612C22.0438 149.353 22.6536 149.115 23.2741 148.908C24.2264 148.576 25.2 148.305 26.1888 148.095C36.4469 145.911 47.2772 150.378 54.92 157.351C62.568 164.324 67.5794 173.523 72.1949 182.66C86.8761 211.743 99.6962 241.949 109.687 272.942C109.799 273.294 109.911 273.641 110.024 273.988C106.25 276.631 102.89 279.788 100.047 283.36L94.8143 291.564C93.7467 293.699 92.8505 295.91 92.1336 298.178C91.8285 299.131 91.5593 300.097 91.3258 301.077C88.781 311.591 90.0873 322.633 95.0214 332.318C99.9555 342.003 108.211 349.728 118.378 354.175H118.378Z" fill="#F2F2F2"/>
<path id="Vector_3" d="M129.038 357.281L129 357.462L128.989 357.503C128.989 357.488 128.984 357.477 128.984 357.462C128.973 357.395 128.967 357.327 128.957 357.26C128.984 357.265 129.01 357.275 129.038 357.281Z" fill="#F2F2F2"/>
<path id="Vector_4" d="M91.4543 296.832C91.6788 297.283 91.9034 297.733 92.1335 298.178C91.8285 299.131 91.5592 300.097 91.3258 301.077C91.0852 300.596 90.8392 300.109 90.5985 299.628C86.6836 291.858 82.8756 284.041 79.1745 276.177C72.7994 262.702 66.6434 249.134 60.4769 235.576C53.9839 221.299 47.4928 207.025 41.0036 192.755C34.5161 178.477 28.0269 164.203 21.5358 149.933C21.4906 149.83 21.46 149.722 21.4449 149.612C21.3323 148.618 22.7872 147.898 23.274 148.908C23.2805 148.916 23.2858 148.925 23.2899 148.934C24.1028 150.709 24.9122 152.487 25.718 154.266C32.2055 168.538 38.6947 182.812 45.1858 197.088C51.6521 211.308 58.1201 225.53 64.5897 239.754C70.7347 253.265 76.896 266.771 83.3033 280.163C85.9722 285.744 88.6892 291.3 91.4543 296.832Z" fill="white"/>
<path id="Vector_5" d="M124.416 358.756C124.058 358.212 123.699 357.674 123.346 357.131C123.041 356.67 122.742 356.209 122.442 355.748C122.367 355.634 122.293 355.526 122.228 355.412C123.212 355.707 124.2 355.99 125.191 356.261C125.272 356.39 125.357 356.525 125.448 356.654C125.689 357.022 125.929 357.395 126.175 357.762C126.213 357.824 126.245 357.881 126.272 357.938C126.694 358.937 125.084 359.76 124.416 358.756Z" fill="white"/>
<path id="Vector_6" d="M119.57 355.8C120.009 356.395 120.442 356.991 120.87 357.591C120.126 357.752 119.388 357.907 118.64 358.057C118.046 358.171 117.452 358.285 116.859 358.389C95.3284 362.265 73.0794 359.259 53.4694 349.823C33.8593 340.386 17.9523 325.033 8.14883 306.078C5.62977 301.201 3.50118 295.999 3.24447 290.553C3.03059 286.054 4.26608 281.344 7.13269 277.87C7.36799 277.58 7.61947 277.301 7.8814 277.026C8.28602 276.608 8.7165 276.214 9.17043 275.846C12.0465 273.626 15.5956 272.38 19.2735 272.3C21.7698 272.196 24.2673 272.48 26.6702 273.144C32.5852 274.769 37.7518 278.232 42.6989 281.773C59.5684 293.747 75.4003 307.033 90.037 321.499C90.5183 321.981 91.005 322.473 91.4809 322.959C93.2572 329.782 96.5971 336.131 101.253 341.534C105.909 346.938 111.762 351.258 118.378 354.175C118.397 354.194 118.413 354.217 118.426 354.242C118.816 354.76 119.196 355.277 119.57 355.8Z" fill="#F2F2F2"/>
<path id="Vector_7" d="M120.951 357.705C120.924 357.669 120.897 357.628 120.87 357.591C120.886 357.586 120.897 357.586 120.913 357.581L120.951 357.705Z" fill="#F2F2F2"/>
<path id="Vector_8" d="M7.26639 278.017L29.3193 295.161L51.3722 312.305C58.3564 317.735 65.3362 323.171 72.403 328.5C79.4077 333.782 86.4991 338.96 93.7574 343.912C101.005 348.857 108.421 353.578 116.06 357.939C117.012 358.482 117.967 359.02 118.925 359.551C119.588 359.92 120.228 358.946 119.56 358.575C111.867 354.302 104.399 349.66 97.1076 344.772C89.8088 339.879 82.6856 334.745 75.6598 329.492C68.5965 324.211 61.6309 318.809 54.6722 313.4C47.3475 307.707 40.0232 302.013 32.6994 296.318L10.6464 279.174L7.90207 277.04C7.30527 276.576 6.67325 277.555 7.26639 278.017V278.017Z" fill="white"/>
<path id="Vector_9" d="M309.622 354.175C309.462 354.247 309.296 354.32 309.13 354.382C309.28 354.335 309.43 354.289 309.574 354.242C311.692 353.564 313.794 352.844 315.88 352.083C319.233 350.867 322.542 349.547 325.806 348.123C328.138 347.108 330.449 346.044 332.738 344.929C352.826 335.151 370.772 321.707 385.59 305.338C386.938 303.847 388.259 302.33 389.553 300.787C390.655 299.478 391.733 298.149 392.789 296.801C398.833 289.102 404.166 280.904 408.726 272.3C421.721 247.832 428.332 220.657 427.98 193.148C427.831 183.83 426.82 174.32 422.777 165.867C419.434 158.883 413.733 152.687 406.555 149.612C405.956 149.353 405.346 149.115 404.726 148.908C403.774 148.576 402.8 148.305 401.811 148.095C391.553 145.911 380.723 150.378 373.08 157.351C365.432 164.324 360.421 173.523 355.805 182.66C341.124 211.743 328.304 241.949 318.313 272.942C318.201 273.294 318.089 273.641 317.977 273.988C321.75 276.631 325.11 279.788 327.953 283.36L333.186 291.564C334.253 293.699 335.15 295.91 335.866 298.178C336.171 299.131 336.441 300.097 336.674 301.077C339.219 311.591 337.913 322.633 332.979 332.318C328.045 342.003 319.789 349.728 309.622 354.175V354.175Z" fill="#F2F2F2"/>
<path id="Vector_10" d="M298.963 357.281L299.001 357.462L299.012 357.503C299.012 357.488 299.017 357.477 299.017 357.462C299.028 357.395 299.034 357.327 299.044 357.26C299.017 357.265 298.99 357.275 298.963 357.281Z" fill="#F2F2F2"/>
<path id="Vector_11" d="M336.546 296.832C336.321 297.283 336.097 297.733 335.867 298.178C336.172 299.131 336.441 300.097 336.674 301.077C336.915 300.596 337.161 300.109 337.402 299.628C341.316 291.858 345.124 284.041 348.825 276.177C355.201 262.702 361.357 249.134 367.523 235.576C374.016 221.299 380.507 207.025 386.996 192.755C393.484 178.477 399.973 164.203 406.464 149.933C406.509 149.83 406.54 149.722 406.555 149.612C406.668 148.618 405.213 147.898 404.726 148.908C404.719 148.916 404.714 148.925 404.71 148.934C403.897 150.709 403.088 152.487 402.282 154.266C395.795 168.538 389.305 182.812 382.814 197.088C376.348 211.308 369.88 225.53 363.41 239.754C357.265 253.265 351.104 266.771 344.697 280.163C342.028 285.744 339.311 291.3 336.546 296.832Z" fill="white"/>
<path id="Vector_12" d="M303.584 358.756C303.942 358.212 304.301 357.674 304.654 357.131C304.959 356.67 305.258 356.209 305.558 355.748C305.633 355.634 305.707 355.526 305.772 355.412C304.788 355.707 303.8 355.99 302.809 356.261C302.728 356.39 302.643 356.525 302.552 356.654C302.311 357.022 302.071 357.395 301.825 357.762C301.787 357.824 301.755 357.881 301.728 357.938C301.306 358.937 302.916 359.76 303.584 358.756Z" fill="white"/>
<path id="Vector_13" d="M308.43 355.8C307.991 356.395 307.558 356.991 307.13 357.591C307.874 357.752 308.612 357.907 309.36 358.057C309.954 358.171 310.548 358.285 311.141 358.389C332.672 362.265 354.921 359.259 374.531 349.823C394.141 340.386 410.048 325.033 419.851 306.078C422.37 301.201 424.499 295.999 424.756 290.553C424.969 286.054 423.734 281.344 420.867 277.87C420.632 277.58 420.38 277.301 420.119 277.026C419.714 276.608 419.283 276.214 418.83 275.846C415.953 273.626 412.404 272.38 408.727 272.3C406.23 272.196 403.733 272.48 401.33 273.144C395.415 274.769 390.248 278.232 385.301 281.773C368.432 293.747 352.6 307.033 337.963 321.499C337.482 321.981 336.995 322.473 336.519 322.959C334.743 329.782 331.403 336.131 326.747 341.534C322.091 346.938 316.238 351.258 309.622 354.175C309.603 354.194 309.587 354.217 309.574 354.242C309.184 354.76 308.804 355.277 308.43 355.8Z" fill="#F2F2F2"/>
<path id="Vector_14" d="M307.05 357.705C307.077 357.669 307.104 357.628 307.131 357.591C307.115 357.586 307.104 357.586 307.088 357.581L307.05 357.705Z" fill="#F2F2F2"/>
<path id="Vector_15" d="M420.734 278.017L398.681 295.161L376.628 312.305C369.644 317.735 362.664 323.171 355.597 328.5C348.592 333.782 341.501 338.96 334.243 343.912C326.995 348.857 319.579 353.578 311.94 357.939C310.988 358.482 310.033 359.02 309.075 359.551C308.412 359.92 307.771 358.946 308.44 358.575C316.133 354.302 323.601 349.66 330.892 344.772C338.191 339.879 345.314 334.745 352.34 329.492C359.403 324.211 366.369 318.809 373.328 313.4C380.653 307.707 387.977 302.013 395.301 296.318L417.354 279.174L420.098 277.04C420.695 276.576 421.327 277.555 420.734 278.017V278.017Z" fill="white"/>
<path id="Vector_16" d="M197.35 185.06C196.917 185.202 196.517 185.425 196.174 185.718C195.831 186.01 195.551 186.366 195.351 186.764L192.604 192.171L191.869 193.617C191.463 194.418 191.401 195.342 191.697 196.187C191.994 197.031 192.624 197.728 193.45 198.123L214.738 208.26L252.488 226.229C253.276 226.604 254.181 226.676 255.022 226.432C255.863 226.188 256.577 225.646 257.023 224.913C257.067 224.842 257.104 224.773 257.144 224.699L259.247 220.561L260.628 217.841C260.739 217.624 260.826 217.395 260.886 217.159C261.043 216.535 261.013 215.881 260.8 215.272C260.654 214.853 260.423 214.466 260.121 214.134C259.819 213.802 259.451 213.531 259.04 213.337L254.54 211.194L221.248 195.345L200.004 185.227C199.177 184.833 198.223 184.773 197.35 185.06V185.06Z" fill="#6C63FF"/>
<path id="Vector_17" d="M190.764 187.067C190.367 187.601 190.029 188.174 189.757 188.776C188.7 191.1 188.639 193.735 189.587 196.102C190.535 198.47 192.414 200.377 194.812 201.405L211.448 208.513C211.975 208.736 212.552 208.83 213.125 208.786C213.699 208.742 214.253 208.562 214.738 208.26C215.132 208.014 215.469 207.692 215.73 207.315C215.847 207.15 215.948 206.976 216.032 206.793L221.216 195.427C221.229 195.401 221.24 195.373 221.248 195.345C221.592 194.534 221.596 193.625 221.258 192.812C220.92 191.998 220.268 191.345 219.44 190.99L202.804 183.882C200.724 182.997 198.393 182.83 196.201 183.41C194.009 183.989 192.089 185.281 190.764 187.067Z" fill="#2F2E41"/>
<path id="Vector_18" d="M231.497 256.046C230.921 256.046 230.351 255.942 229.815 255.739L185.841 239.087C184.67 238.628 183.735 237.738 183.241 236.613C182.747 235.487 182.734 234.218 183.205 233.083L186.968 223.774C187.426 222.626 188.332 221.699 189.492 221.193C190.058 220.942 190.67 220.805 191.292 220.788C191.914 220.771 192.534 220.876 193.113 221.096L237.087 237.748C237.667 237.967 238.195 238.297 238.64 238.718C239.086 239.139 239.439 239.642 239.679 240.198C240.176 241.331 240.192 242.607 239.723 243.752L235.96 253.061C235.612 253.934 235 254.686 234.204 255.219C233.407 255.751 232.464 256.04 231.497 256.046V256.046Z" fill="#CCCCCC"/>
<g id="paddle2">
<path id="Vector_19" d="M236.367 238.77H228.473C227.551 238.771 226.667 239.126 226.015 239.757C225.364 240.388 224.997 241.243 224.996 242.135V289.766C224.997 290.658 225.364 291.514 226.015 292.144C226.667 292.775 227.551 293.13 228.473 293.131H236.367C236.823 293.131 237.275 293.044 237.697 292.875C238.119 292.706 238.502 292.458 238.825 292.146C239.148 291.833 239.404 291.462 239.578 291.054C239.753 290.646 239.843 290.208 239.843 289.766V242.135C239.843 241.693 239.753 241.256 239.578 240.848C239.404 240.439 239.148 240.068 238.825 239.756C238.502 239.443 238.119 239.196 237.697 239.026C237.275 238.857 236.823 238.77 236.367 238.77V238.77Z" fill="#6C63FF"/>
<path id="Vector_20" d="M236.598 296.108H228.04C227.26 296.108 226.512 295.808 225.96 295.274C225.409 294.74 225.099 294.015 225.099 293.26C225.099 292.505 225.409 291.781 225.96 291.247C226.512 290.713 227.26 290.413 228.04 290.413H236.598C237.378 290.413 238.126 290.713 238.678 291.247C239.229 291.781 239.539 292.505 239.539 293.26C239.539 294.015 239.229 294.74 238.678 295.274C238.126 295.808 237.378 296.108 236.598 296.108Z" fill="#2F2E41"/>
</g>
<path id="Vector_21" d="M169.27 244.503C168.195 244.511 167.122 244.402 166.072 244.176C161.325 243.116 159.572 241.099 159.284 240.074C159.221 239.918 159.204 239.747 159.235 239.582C159.265 239.417 159.343 239.263 159.458 239.137C159.577 239.039 159.723 238.975 159.878 238.954C160.034 238.933 160.192 238.956 160.334 239.019C161.809 239.496 182.715 235.494 190.14 233.836C193.227 233.147 195.395 233.26 196.581 234.174C196.822 234.345 197.021 234.565 197.166 234.819C197.311 235.072 197.398 235.353 197.42 235.641V235.821L182.819 241.056C182.346 241.283 175.542 244.503 169.27 244.503Z" fill="#2F2E41"/>
<path id="Vector_22" d="M283.624 306.88C283.52 306.88 283.418 306.851 283.331 306.796C283.244 306.741 283.175 306.663 283.134 306.57L255.586 245.922C255.459 245.641 255.249 245.402 254.982 245.237C254.714 245.072 254.402 244.987 254.085 244.995L178.71 246.484C178.44 246.488 178.177 246.559 177.943 246.689C177.709 246.819 177.514 247.004 177.374 247.226L141.199 304.482C141.125 304.599 141.006 304.683 140.868 304.716C140.73 304.748 140.585 304.726 140.464 304.654C140.343 304.582 140.256 304.467 140.223 304.334C140.19 304.2 140.213 304.06 140.287 303.942L176.461 246.686C176.694 246.315 177.021 246.007 177.41 245.79C177.799 245.574 178.239 245.456 178.688 245.448L254.063 243.959C254.591 243.949 255.111 244.09 255.556 244.366C256.001 244.641 256.353 245.037 256.566 245.506L284.113 306.154C284.149 306.233 284.164 306.319 284.156 306.405C284.149 306.49 284.12 306.573 284.071 306.645C284.023 306.717 283.956 306.776 283.878 306.817C283.8 306.858 283.713 306.88 283.624 306.88L283.624 306.88Z" fill="#2F2E41"/>
<path id="Vector_23" d="M196.35 309.05C196.234 309.049 196.121 309.013 196.029 308.945C195.936 308.878 195.869 308.783 195.837 308.675L178.401 249.96C178.363 249.828 178.379 249.687 178.448 249.567C178.517 249.447 178.632 249.358 178.768 249.32C178.904 249.282 179.05 249.298 179.174 249.365C179.298 249.431 179.39 249.542 179.43 249.674L196.865 308.389C196.884 308.454 196.89 308.522 196.882 308.59C196.874 308.657 196.853 308.723 196.819 308.782C196.784 308.842 196.739 308.894 196.684 308.936C196.629 308.979 196.566 309.01 196.498 309.029C196.45 309.043 196.4 309.05 196.35 309.05V309.05Z" fill="#2F2E41"/>
<path id="Vector_24" d="M200.094 240.976H182.98C179.789 240.972 176.731 239.744 174.475 237.56C172.219 235.377 170.95 232.416 170.946 229.328V226.74C170.95 223.652 172.219 220.691 174.475 218.507C176.731 216.324 179.789 215.096 182.98 215.092H200.094C203.285 215.096 206.344 216.324 208.6 218.507C210.856 220.691 212.125 223.652 212.128 226.74V229.328C212.125 232.416 210.856 235.377 208.6 237.56C206.344 239.744 203.285 240.972 200.094 240.976V240.976Z" fill="#CCCCCC"/>
<path id="Vector_25" d="M251.529 222.096C251.088 222.096 250.66 221.945 250.322 221.67C249.984 221.395 249.758 221.013 249.683 220.591C249.608 220.17 249.689 219.736 249.913 219.367C250.136 218.999 250.487 218.718 250.903 218.576L267.039 213.054C267.507 212.894 268.022 212.92 268.47 213.127C268.918 213.334 269.262 213.705 269.428 214.158C269.593 214.611 269.566 215.109 269.352 215.543C269.138 215.976 268.755 216.31 268.287 216.47L252.151 221.992C251.952 222.061 251.741 222.096 251.529 222.096V222.096Z" fill="#2F2E41"/>
<path id="Vector_26" d="M209.269 308.633C209.164 308.633 209.061 308.603 208.973 308.547C208.886 308.491 208.817 308.411 208.776 308.317C208.735 308.224 208.724 308.121 208.743 308.021C208.762 307.921 208.811 307.829 208.884 307.756L257.234 259.25C257.283 259.201 257.341 259.161 257.406 259.134C257.47 259.107 257.54 259.092 257.61 259.091C257.68 259.089 257.75 259.101 257.816 259.126C257.881 259.151 257.941 259.188 257.992 259.236C258.042 259.283 258.083 259.339 258.111 259.402C258.139 259.464 258.154 259.531 258.155 259.6C258.156 259.668 258.144 259.735 258.118 259.799C258.092 259.862 258.053 259.92 258.004 259.969L209.654 308.474C209.604 308.525 209.544 308.564 209.478 308.592C209.412 308.619 209.341 308.633 209.269 308.633V308.633Z" fill="#2F2E41"/>
<path id="Vector_27" d="M145.796 314.87C145.655 314.87 145.518 314.815 145.418 314.719C145.318 314.622 145.261 314.49 145.261 314.353C145.261 314.215 145.317 314.084 145.417 313.986C145.517 313.889 145.653 313.834 145.795 313.834L190.466 313.708H190.467C190.609 313.708 190.745 313.763 190.846 313.859C190.946 313.956 191.003 314.088 191.003 314.225C191.003 314.363 190.947 314.494 190.847 314.592C190.747 314.689 190.611 314.744 190.469 314.744L145.798 314.87H145.796Z" fill="#2F2E41"/>
<path id="Vector_28" d="M254.75 240.594C254.627 240.594 254.509 240.553 254.414 240.479C254.319 240.404 254.253 240.3 254.227 240.185L251.726 228.877C251.709 228.801 251.71 228.723 251.729 228.648C251.747 228.573 251.783 228.503 251.833 228.443C251.883 228.383 251.946 228.334 252.018 228.301C252.09 228.268 252.169 228.25 252.249 228.25H260.735V222.7C260.735 222.562 260.791 222.431 260.891 222.334C260.991 222.237 261.128 222.182 261.269 222.182C261.411 222.182 261.547 222.237 261.648 222.334C261.748 222.431 261.804 222.562 261.804 222.7V228.768C261.804 228.905 261.748 229.037 261.648 229.134C261.547 229.231 261.411 229.286 261.269 229.286H252.91L255.273 239.968C255.29 240.043 255.289 240.122 255.271 240.197C255.252 240.272 255.216 240.342 255.166 240.402C255.116 240.462 255.053 240.511 254.981 240.544C254.908 240.577 254.83 240.594 254.75 240.594L254.75 240.594Z" fill="#2F2E41"/>
<path id="Vector_29" d="M200.094 328.203C197.979 328.203 195.911 327.596 194.152 326.458C192.393 325.321 191.022 323.704 190.212 321.812C189.402 319.92 189.191 317.838 189.603 315.83C190.016 313.822 191.035 311.977 192.531 310.529C194.027 309.081 195.933 308.095 198.008 307.695C200.083 307.296 202.233 307.501 204.188 308.284C206.142 309.068 207.813 310.395 208.988 312.098C210.164 313.8 210.791 315.802 210.791 317.85C210.788 320.595 209.66 323.226 207.655 325.167C205.649 327.108 202.93 328.2 200.094 328.203V328.203ZM200.094 308.532C198.19 308.532 196.329 309.078 194.746 310.102C193.163 311.126 191.929 312.581 191.2 314.284C190.472 315.987 190.281 317.86 190.652 319.668C191.024 321.475 191.941 323.135 193.287 324.439C194.633 325.742 196.349 326.629 198.216 326.989C200.084 327.348 202.019 327.164 203.778 326.459C205.538 325.753 207.041 324.559 208.099 323.027C209.157 321.494 209.721 319.693 209.721 317.85C209.718 315.379 208.703 313.011 206.899 311.264C205.094 309.517 202.647 308.534 200.094 308.532V308.532Z" fill="#2F2E41"/>
<path id="Vector_30" d="M414.708 359.778H19.8451C19.6762 359.778 19.5143 359.713 19.3948 359.597C19.2754 359.482 19.2083 359.325 19.2083 359.161C19.2083 358.998 19.2754 358.841 19.3948 358.726C19.5143 358.61 19.6762 358.545 19.8451 358.545H414.708C414.876 358.545 415.038 358.61 415.158 358.726C415.277 358.841 415.344 358.998 415.344 359.161C415.344 359.325 415.277 359.482 415.158 359.597C415.038 359.713 414.876 359.778 414.708 359.778Z" fill="#3F3D56"/>
<path id="Vector_31" d="M204.88 171.003C204.425 171.046 203.983 171.175 203.58 171.385C203.177 171.594 202.821 171.878 202.533 172.222L198.587 176.882L197.531 178.128C196.947 178.819 196.67 179.705 196.76 180.593C196.85 181.481 197.3 182.298 198.011 182.865L216.357 197.424L248.893 223.236C249.572 223.774 250.437 224.044 251.313 223.991C252.189 223.939 253.013 223.568 253.618 222.953C253.678 222.893 253.731 222.834 253.787 222.771L256.807 219.205L258.792 216.861C258.951 216.673 259.089 216.47 259.204 216.254C259.503 215.68 259.628 215.036 259.563 214.397C259.519 213.956 259.385 213.529 259.169 213.139C258.953 212.749 258.659 212.404 258.304 212.125L254.426 209.047L225.733 186.281L207.425 171.75C206.713 171.184 205.797 170.916 204.88 171.003V171.003Z" fill="#6C63FF"/>
<path id="Vector_32" d="M224.699 184.313L211.938 171.777C210.096 169.968 207.587 168.94 204.963 168.921C202.339 168.901 199.814 169.892 197.945 171.674C196.075 173.457 195.013 175.885 194.993 178.425C194.973 180.965 195.997 183.409 197.838 185.218L210.6 197.754C211.162 198.307 211.904 198.654 212.701 198.738C213.497 198.822 214.299 198.636 214.971 198.213C215.17 198.095 215.354 197.953 215.518 197.791L224.661 189.073C224.984 188.767 225.242 188.403 225.42 188.001C225.689 187.386 225.765 186.708 225.637 186.051C225.508 185.395 225.182 184.79 224.699 184.313Z" fill="#2F2E41"/>
<g id="paddle">
<path id="Vector_33" d="M210.391 320.438H201.834C201.054 320.438 200.305 320.138 199.754 319.604C199.202 319.07 198.892 318.346 198.892 317.591C198.892 316.836 199.202 316.112 199.754 315.578C200.305 315.044 201.054 314.744 201.834 314.744H210.391C211.171 314.744 211.919 315.044 212.471 315.578C213.023 316.112 213.333 316.836 213.333 317.591C213.333 318.346 213.023 319.07 212.471 319.604C211.919 320.138 211.171 320.438 210.391 320.438V320.438Z" fill="#2F2E41"/>
<path id="Vector_34" d="M208.37 261H200.476C199.555 261.001 198.671 261.356 198.019 261.986C197.367 262.617 197.001 263.473 197 264.365V311.996C197.001 312.888 197.367 313.743 198.019 314.374C198.671 315.005 199.555 315.36 200.476 315.361H208.37C208.827 315.361 209.279 315.274 209.701 315.105C210.123 314.935 210.506 314.688 210.829 314.375C211.151 314.063 211.408 313.692 211.582 313.283C211.757 312.875 211.847 312.438 211.847 311.996V264.365C211.847 263.923 211.757 263.485 211.582 263.077C211.408 262.669 211.151 262.298 210.829 261.985C210.506 261.673 210.123 261.425 209.701 261.256C209.279 261.087 208.827 261 208.37 261V261Z" fill="#6C63FF"/>
</g>
<path id="Vector_35" d="M198.261 277.933C195.734 277.933 193.554 276.419 193.167 274.239L185.163 229.196C185.062 228.583 185.101 227.956 185.276 227.358C185.452 226.761 185.761 226.208 186.181 225.739C187.083 224.707 188.338 224.021 189.717 223.807L201.273 221.884C204.225 221.392 206.984 223.01 207.424 225.49L215.428 270.533C215.529 271.146 215.491 271.773 215.316 272.37C215.141 272.967 214.833 273.52 214.413 273.99C213.51 275.022 212.255 275.708 210.874 275.921L199.319 277.845C198.969 277.904 198.616 277.933 198.261 277.933V277.933Z" fill="#CCCCCC"/>
<path id="Vector_36" d="M209.994 165.477C208.635 163.979 207.052 162.685 205.298 161.639C201.516 159.416 197.172 158.249 192.747 158.268C188.321 158.286 183.988 159.489 180.225 161.744C178.728 162.66 177.357 163.756 176.145 165.006C172.987 168.178 171.207 172.403 171.171 176.808V226.644C171.169 226.796 171.183 226.947 171.214 227.096C171.465 228.647 173.032 229.846 174.915 229.846H210.786C212.845 229.846 214.53 228.409 214.53 226.644V176.808C214.502 172.621 212.889 168.589 209.994 165.477Z" fill="#2F2E41"/>
<g id="head">
<path id="Vector_37" d="M193.175 151.898C208.984 151.898 221.799 139.494 221.799 124.193C221.799 108.892 208.984 96.4878 193.175 96.4878C177.367 96.4878 164.551 108.892 164.551 124.193C164.551 139.494 177.367 151.898 193.175 151.898Z" fill="#6C63FF"/>
<path id="Vector_38" d="M217.347 136.44L217.317 135.405C219.307 135.351 221.062 135.231 222.38 134.298C222.754 134.019 223.061 133.665 223.281 133.261C223.5 132.856 223.628 132.411 223.654 131.954C223.677 131.675 223.633 131.395 223.526 131.135C223.419 130.875 223.252 130.643 223.037 130.456C222.162 129.74 220.754 129.972 219.728 130.427L218.842 130.82L220.54 118.815L221.599 118.956L220.156 129.168C221.55 128.771 222.842 128.942 223.728 129.665C224.067 129.952 224.334 130.312 224.507 130.715C224.679 131.118 224.753 131.555 224.722 131.991C224.691 132.604 224.522 133.203 224.226 133.746C223.931 134.289 223.516 134.763 223.011 135.135C221.317 136.333 219.116 136.392 217.347 136.44Z" fill="#2F2E41"/>
<path id="Vector_39" d="M214.417 119.836H208.656V120.872H214.417V119.836Z" fill="#2F2E41"/>
<path id="Vector_40" d="M199.609 126.4C195.813 127.621 191.553 125.112 191.312 121.162C191.243 120.245 191.386 119.325 191.731 118.468C192.075 117.611 192.613 116.84 193.304 116.209C194.577 115.157 196.139 114.488 197.799 114.282C201.402 113.676 205.106 114.167 208.725 113.646C212.376 113.12 215.594 111.295 217.194 107.975C217.961 106.346 218.365 104.58 218.381 102.79C218.397 101 218.024 99.2268 217.286 97.5855C215.626 93.9095 212.368 91.1101 208.779 89.2256C201.871 85.599 193.58 84.8847 185.968 86.4934C178.323 88.0648 171.43 92.0384 166.36 97.7956C165.754 98.5029 165.179 99.2343 164.635 99.9899C164.565 100.108 164.529 100.242 164.529 100.378C164.529 100.514 164.565 100.648 164.636 100.766C164.706 100.885 164.806 100.983 164.928 101.052C165.049 101.12 165.187 101.157 165.328 101.158L170.021 100.612L169.328 99.4434L164.228 108.318C163.914 108.864 164.446 109.71 165.134 109.459L172.613 106.731L171.832 105.433L164.409 114.181C163.759 114.947 164.888 116.052 165.544 115.279L172.967 106.531C173.418 106 173.016 104.931 172.186 105.233L164.707 107.961L165.613 109.102L170.713 100.227C170.98 99.7638 170.655 98.9849 170.021 99.0588L165.328 99.6053L166.021 100.774C170.404 94.6977 177.128 90.4181 184.469 88.4522C191.837 86.479 200.04 86.7953 206.972 90.0697C210.635 91.8 213.985 94.3994 215.745 98.0354C216.497 99.6092 216.854 101.333 216.788 103.065C216.723 104.798 216.236 106.491 215.367 108.008C211.342 114.659 201.957 111.241 195.677 113.178C192.094 114.283 189.522 117.334 189.701 121.069C189.804 122.963 190.634 124.751 192.029 126.083C193.423 127.415 195.281 128.195 197.239 128.269C198.187 128.315 199.135 128.189 200.035 127.898C201.01 127.584 200.592 126.084 199.609 126.4L199.609 126.4Z" fill="#2F2E41"/>
</g>
<g id="wheel2">
<path id="Vector_41" d="M137.119 314.845C138.891 314.845 140.328 313.454 140.328 311.739C140.328 310.024 138.891 308.633 137.119 308.633C135.347 308.633 133.91 310.024 133.91 311.739C133.91 313.454 135.347 314.845 137.119 314.845Z" fill="#2F2E41"/>
<path id="Vector_42" d="M138.054 358.596C128.428 358.596 119.018 355.834 111.015 350.657C103.011 345.481 96.7728 338.124 93.0892 329.516C89.4055 320.908 88.4416 311.436 90.3196 302.298C92.1975 293.16 96.8328 284.766 103.639 278.178C110.446 271.59 119.118 267.103 128.559 265.285C138 263.468 147.786 264.401 156.679 267.966C165.572 271.532 173.173 277.57 178.521 285.316C183.869 293.063 186.724 302.171 186.724 311.488C186.709 323.978 181.577 335.952 172.453 344.783C163.328 353.615 150.958 358.582 138.054 358.596V358.596ZM138.054 265.416C128.64 265.416 119.437 268.118 111.609 273.18C103.781 278.243 97.6801 285.438 94.0774 293.857C90.4747 302.276 89.532 311.539 91.3687 320.477C93.2053 329.414 97.7388 337.623 104.396 344.067C111.053 350.51 119.534 354.898 128.768 356.676C138.001 358.453 147.572 357.541 156.27 354.054C164.967 350.567 172.402 344.662 177.632 337.085C182.862 329.508 185.654 320.601 185.654 311.488C185.64 299.273 180.62 287.563 171.697 278.925C162.773 270.288 150.674 265.429 138.054 265.416V265.416Z" fill="#2F2E41"/>
</g>
<g id="wheel1">
<path id="Vector_43" d="M287.941 314.845C289.714 314.845 291.15 313.454 291.15 311.739C291.15 310.024 289.714 308.633 287.941 308.633C286.169 308.633 284.732 310.024 284.732 311.739C284.732 313.454 286.169 314.845 287.941 314.845Z" fill="#2F2E41"/>
<path id="Vector_44" d="M288.876 358.596C279.25 358.596 269.841 355.834 261.837 350.657C253.833 345.481 247.595 338.124 243.911 329.516C240.228 320.908 239.264 311.436 241.142 302.298C243.02 293.16 247.655 284.766 254.462 278.178C261.268 271.59 269.94 267.103 279.381 265.285C288.822 263.468 298.608 264.401 307.501 267.966C316.395 271.532 323.996 277.57 329.344 285.316C334.692 293.063 337.546 302.171 337.546 311.488C337.531 323.978 332.399 335.952 323.275 344.783C314.151 353.615 301.78 358.582 288.876 358.596ZM288.876 265.416C279.462 265.416 270.259 268.118 262.431 273.18C254.603 278.243 248.502 285.438 244.9 293.857C241.297 302.276 240.354 311.539 242.191 320.477C244.028 329.414 248.561 337.623 255.218 344.067C261.875 350.51 270.357 354.898 279.59 356.676C288.824 358.453 298.394 357.541 307.092 354.054C315.79 350.567 323.224 344.662 328.454 337.085C333.685 329.508 336.476 320.601 336.476 311.488C336.462 299.273 331.443 287.563 322.519 278.925C313.595 270.288 301.496 265.429 288.876 265.416Z" fill="#2F2E41"/>
</g>
</g>
<defs>
<clipPath id="clip0">
<rect width="428" height="360" fill="white"/>
</clipPath>
</defs>
</svg>
