<svg width="439" height="402" viewBox="0 0 439 402" fill="none" xmlns="http://www.w3.org/2000/svg">
<rect width="439" height="402" fill="white"/>
<g id="undraw_social_thinking_7ule 1" clip-path="url(#clip0)">
<path id="Vector" d="M48.5086 383.04C48.5086 395.698 41.5779 400.118 33.0278 400.118C32.8297 400.118 32.632 400.116 32.4345 400.111C32.0384 400.102 31.646 400.081 31.2583 400.053C23.542 399.46 17.547 394.813 17.547 383.04C17.547 370.856 31.8865 355.483 32.9636 354.345L32.9655 354.343C33.007 354.299 33.0278 354.277 33.0278 354.277C33.0278 354.277 48.5086 370.381 48.5086 383.04Z" fill="#19983D"/>
<path id="Vector_2" d="M32.4637 398.182L38.1258 389.592L32.4496 399.125L32.4345 400.111C32.0384 400.102 31.646 400.081 31.2583 400.053L31.8686 387.388L31.8639 387.29L31.8742 387.271L31.9318 386.075L26.2414 376.518L31.9497 385.178L31.9629 385.432L32.4241 375.863L27.5525 365.988L32.4836 374.183L32.9636 354.345L32.9655 354.277V354.343L32.8854 369.987L37.7353 363.785L32.8655 371.334L32.7373 379.902L37.2656 371.679L32.7184 381.162L32.6467 385.925L39.2209 374.481L32.6222 387.588L32.4637 398.182Z" fill="#030305"/>
<path id="Vector_3" d="M380.401 222.197C380.401 321.455 338.893 399.759 287.777 401.92C221.118 404.739 133.998 332.574 195.154 222.197C242.279 137.142 236.623 42.4734 287.777 42.4734C338.932 42.4734 380.401 122.938 380.401 222.197Z" fill="#F2F2F2"/>
<path id="Vector_4" d="M326.627 274.965H194.56V399.489H326.627V274.965Z" fill="#872D89"/>
<path id="Vector_5" d="M0 399.489H439" stroke="#3F3D56" stroke-width="2" stroke-miterlimit="10"/>
<path id="pint" d="M289.918 4.29837e-06C287.015 0.000276963 284.2 1.08528 281.947 3.07278C279.693 5.06028 278.139 7.8292 277.543 10.9145C276.948 13.9998 277.349 17.2134 278.678 20.0158C280.008 22.8181 282.185 25.0384 284.844 26.3036C284.791 25.2477 284.865 24.1887 285.064 23.1536C285.307 22.0382 286.69 15.6706 286.69 15.6706C286.414 14.9872 286.275 14.2475 286.283 13.5011C286.283 11.4665 287.367 9.9466 288.722 9.9466C289.873 9.9466 290.426 10.8843 290.426 12.0058C290.426 13.2622 289.687 15.1375 289.309 16.878C289.233 17.2004 289.229 17.5375 289.296 17.8622C289.362 18.1869 289.498 18.49 289.693 18.747C289.887 19.0041 290.135 19.2079 290.415 19.3421C290.696 19.4762 291.001 19.537 291.307 19.5194C293.7 19.5194 295.315 16.1793 295.315 12.2203C295.315 9.21119 293.446 6.96201 290.054 6.96201C289.242 6.92738 288.432 7.07239 287.674 7.38824C286.915 7.70408 286.223 8.18415 285.641 8.79925C285.059 9.41435 284.598 10.1516 284.286 10.9663C283.974 11.7809 283.818 12.6559 283.828 13.5379C283.79 14.5161 284.088 15.4746 284.663 16.2283C284.764 16.3188 284.836 16.4417 284.869 16.5794C284.901 16.7171 284.893 16.8624 284.844 16.9944C284.782 17.2457 284.646 17.8524 284.584 18.0975C284.574 18.1717 284.547 18.2419 284.506 18.3025C284.465 18.363 284.411 18.4121 284.35 18.4457C284.288 18.4792 284.219 18.4963 284.15 18.4954C284.081 18.4946 284.013 18.4758 283.952 18.4407C282.185 17.6563 281.361 15.5603 281.361 13.1947C281.361 9.29697 284.392 4.62091 290.398 4.62091C295.224 4.62091 298.402 8.41447 298.402 12.4838C298.402 17.8708 295.642 21.8911 291.578 21.8911C290.212 21.8911 288.931 21.0883 288.49 20.1812C288.49 20.1812 287.757 23.3436 287.599 23.9564C287.307 24.9977 286.879 25.9883 286.329 26.8981C288.068 27.4558 289.897 27.6009 291.692 27.3236C293.487 27.0463 295.206 26.353 296.733 25.2909C298.26 24.2287 299.558 22.8225 300.541 21.1675C301.523 19.5126 302.166 17.6477 302.426 15.6993C302.686 13.7509 302.557 11.7645 302.048 9.87493C301.539 7.98537 300.661 6.23678 299.475 4.74778C298.289 3.25877 296.821 2.06416 295.172 1.24498C293.524 0.425805 291.732 0.00121311 289.918 0L289.918 4.29837e-06Z" fill="#7B070E"/>
<path id="twitter" d="M414.745 99.2834C413.747 99.7625 412.689 100.078 411.606 100.221C412.748 99.4792 413.603 98.3117 414.011 96.9362C412.939 97.6293 411.764 98.1165 410.539 98.3764C409.791 97.5064 408.818 96.9012 407.748 96.6397C406.678 96.3782 405.56 96.4724 404.54 96.9101C403.52 97.3478 402.645 98.1088 402.029 99.0939C401.413 100.079 401.084 101.243 401.085 102.433C401.083 102.889 401.13 103.344 401.226 103.788C399.052 103.671 396.925 103.058 394.983 101.988C393.042 100.918 391.33 99.4161 389.96 97.5797C389.26 98.8881 389.047 100.437 389.363 101.91C389.678 103.384 390.499 104.671 391.659 105.51C390.787 105.487 389.935 105.232 389.175 104.768V104.842C389.175 106.213 389.611 107.542 390.411 108.603C391.21 109.664 392.323 110.392 393.561 110.664C393.092 110.802 392.608 110.872 392.121 110.872C391.777 110.873 391.432 110.836 391.094 110.762C391.443 111.942 392.123 112.974 393.039 113.714C393.955 114.453 395.061 114.863 396.202 114.887C394.267 116.539 391.875 117.435 389.412 117.43C388.976 117.429 388.541 117.401 388.108 117.344C390.597 119.103 393.504 120.036 396.473 120.028C406.538 120.028 412.035 110.977 412.035 103.126C412.035 102.869 412.03 102.611 412.018 102.36C413.088 101.518 414.011 100.477 414.745 99.2834V99.2834Z" fill="#1D9EA6"/>
<path id="facebook" d="M204.406 17.4746H185.125C184.807 17.4748 184.503 17.6117 184.279 17.8553C184.054 18.0989 183.928 18.4293 183.928 18.7738V39.7089C183.928 40.0534 184.054 40.3838 184.279 40.6274C184.503 40.871 184.807 41.0079 185.125 41.0081H194.766V31.6928H192.175V28.2608H194.766V25.7236C194.766 22.6838 196.707 21.0291 199.208 21.0291C200.404 21.0291 201.691 21.1272 201.991 21.1701V24.3447H199.998C198.638 24.3447 198.378 25.0433 198.378 26.0729V28.2608H201.618L201.195 31.6928H198.378V41.0081H204.406C204.724 41.0079 205.028 40.871 205.252 40.6274C205.477 40.3838 205.603 40.0534 205.603 39.7089V18.7738C205.603 18.4293 205.477 18.0989 205.252 17.8553C205.028 17.6117 204.724 17.4747 204.406 17.4746Z" fill="#35168C"/>
<g id="insta">
<path id="Vector_6" d="M206.838 104.618C208.034 104.622 209.181 105.14 210.027 106.059C210.873 106.977 211.35 108.222 211.353 109.521V119.327C211.35 120.626 210.873 121.871 210.027 122.789C209.181 123.708 208.034 124.226 206.838 124.23H197.806C196.61 124.226 195.463 123.708 194.617 122.789C193.771 121.871 193.294 120.626 193.291 119.327V109.521C193.294 108.222 193.771 106.977 194.617 106.059C195.463 105.14 196.61 104.622 197.806 104.618H206.838ZM206.838 102.657H197.806C196.131 102.663 194.526 103.387 193.342 104.674C192.157 105.96 191.489 107.702 191.485 109.521V119.327C191.489 121.146 192.157 122.888 193.342 124.175C194.526 125.461 196.131 126.185 197.806 126.191H206.838C208.513 126.185 210.118 125.461 211.302 124.175C212.487 122.888 213.155 121.146 213.159 119.327V109.521C213.155 107.702 212.487 105.96 211.302 104.674C210.118 103.387 208.513 102.663 206.838 102.657V102.657Z" fill="#563D3D"/>
<path id="Vector_7" d="M208.192 109.521C207.924 109.521 207.662 109.435 207.44 109.273C207.217 109.112 207.043 108.882 206.941 108.613C206.838 108.344 206.811 108.049 206.864 107.763C206.916 107.478 207.045 107.216 207.234 107.01C207.424 106.805 207.665 106.665 207.928 106.608C208.191 106.551 208.463 106.58 208.711 106.691C208.958 106.803 209.17 106.991 209.319 107.233C209.468 107.475 209.547 107.759 209.547 108.05C209.547 108.244 209.513 108.435 209.445 108.614C209.377 108.792 209.277 108.955 209.151 109.091C209.025 109.228 208.876 109.336 208.711 109.41C208.547 109.484 208.37 109.522 208.192 109.521ZM202.322 110.502C203.036 110.502 203.735 110.732 204.329 111.163C204.923 111.594 205.386 112.206 205.66 112.923C205.933 113.64 206.004 114.428 205.865 115.189C205.726 115.95 205.382 116.649 204.876 117.198C204.371 117.746 203.728 118.12 203.027 118.271C202.326 118.422 201.6 118.345 200.94 118.048C200.279 117.751 199.715 117.248 199.318 116.603C198.921 115.958 198.71 115.2 198.71 114.424C198.71 113.384 199.091 112.387 199.769 111.652C200.446 110.916 201.364 110.503 202.322 110.502ZM202.322 108.541C201.25 108.541 200.203 108.886 199.311 109.532C198.42 110.179 197.726 111.098 197.316 112.173C196.906 113.248 196.798 114.431 197.007 115.572C197.216 116.713 197.733 117.761 198.49 118.584C199.248 119.407 200.214 119.967 201.265 120.194C202.316 120.421 203.405 120.305 204.396 119.86C205.386 119.414 206.232 118.66 206.827 117.693C207.423 116.725 207.741 115.588 207.741 114.424C207.74 112.864 207.169 111.368 206.153 110.264C205.137 109.161 203.759 108.541 202.322 108.541Z" fill="#563D3D"/>
</g>
<path id="link" d="M364.571 5.92277H346.486C346.253 5.91057 346.021 5.94834 345.802 6.03391C345.583 6.11949 345.382 6.25119 345.21 6.42144C345.038 6.5917 344.898 6.79716 344.799 7.02605C344.701 7.25493 344.645 7.50272 344.634 7.7552V27.4339C344.647 27.9633 344.846 28.4674 345.19 28.8425C345.535 29.2175 345.998 29.435 346.486 29.4502H364.565C365.041 29.43 365.49 29.207 365.816 28.8296C366.141 28.4522 366.316 27.9507 366.304 27.4339V7.7552C366.308 7.50925 366.265 7.26507 366.179 7.03764C366.092 6.81022 365.964 6.60438 365.802 6.43275C365.639 6.26113 365.446 6.12735 365.235 6.03965C365.023 5.95195 364.797 5.91218 364.571 5.92277V5.92277ZM351.351 25.534H348.247V15.0543H351.351V25.534ZM349.906 13.4608H349.884C349.437 13.4576 349.01 13.2623 348.696 12.9176C348.381 12.573 348.206 12.1071 348.207 11.6222C348.209 11.1372 348.387 10.6726 348.704 10.3303C349.02 9.98793 349.448 9.79569 349.895 9.79569C350.342 9.79569 350.77 9.98793 351.087 10.3303C351.403 10.6726 351.581 11.1372 351.583 11.6222C351.584 12.1071 351.409 12.573 351.095 12.9176C350.78 13.2623 350.353 13.4576 349.906 13.4608V13.4608ZM362.697 25.534H359.592V19.8039C359.592 18.4311 359.141 17.4934 358.018 17.4934C357.666 17.4966 357.325 17.618 357.04 17.8408C356.755 18.0636 356.54 18.3769 356.426 18.7375C356.343 19.0037 356.307 19.2842 356.319 19.5649V25.534H353.214V15.0543H356.319V16.5129C356.601 15.9819 357.01 15.5435 357.503 15.2437C357.996 14.9439 358.554 14.7938 359.118 14.8092C361.156 14.8092 362.697 16.2677 362.697 19.4117V25.534Z" fill="#8F0E5C"/>
<path id="Vector_8" d="M278.881 151.057C278.881 151.057 300.854 151.706 304.483 153.139C308.113 154.573 309.735 164.824 309.735 164.824L292.674 170.646L279.914 169.861L270.31 170.598L275.672 155.35L278.881 151.057Z" fill="#2F2E41"/>
<path id="Vector_9" d="M279.829 143.229C279.829 143.229 281.274 149.291 278.066 153.584C274.857 157.876 291.859 173.173 291.859 173.173L300.829 171.499C300.829 171.499 298.852 152.871 301.507 148.154C304.163 143.437 279.829 143.229 279.829 143.229Z" fill="#9F616A"/>
<path id="Vector_10" opacity="0.1" d="M279.829 143.229C279.829 143.229 281.274 149.291 278.066 153.584C274.857 157.876 291.859 173.173 291.859 173.173L300.829 171.499C300.829 171.499 298.852 152.871 301.507 148.154C304.163 143.437 279.829 143.229 279.829 143.229Z" fill="black"/>
<path id="Vector_11" d="M339.48 320.484L319.69 348.979L333.196 357.54L351.784 324.52L339.48 320.484Z" fill="#9F616A"/>
<path id="Vector_12" d="M325.598 349.459C325.598 349.459 318.311 340.265 318.635 342.316C318.96 344.366 313.45 361.753 318.576 363.434C323.703 365.116 367.664 369.577 368.269 364.187C368.874 358.797 355.154 355.025 355.154 355.025C355.154 355.025 347.004 346.52 345.197 347.385C343.39 348.25 325.598 349.459 325.598 349.459Z" fill="#2F2E41"/>
<path id="Vector_13" d="M335.04 347.697L350.847 376.937L362.782 369.433L346.842 345.495L335.04 347.697Z" fill="#9F616A"/>
<path id="Vector_14" d="M359.993 278.134L355.302 285.342C355.302 285.342 332.937 319.066 335.313 321.789C337.688 324.512 347.579 334.803 352.61 332.809C357.64 330.815 375.513 296.346 375.513 296.346L370.851 276.108L359.993 278.134Z" fill="#2F2E41"/>
<path id="Vector_15" d="M263.653 271.311C263.653 271.311 268.662 281.458 281.356 284.894C294.05 288.329 307.313 295.353 307.785 295.265C308.257 295.177 309.592 294.4 309.916 296.45C310.241 298.5 313.723 302.072 313.723 302.072C313.723 302.072 327.745 353.808 333.1 353.864C338.455 353.92 349.46 349.756 349.689 348.13C349.917 346.504 333.291 293.671 333.129 292.646L331.182 280.345C331.182 280.345 353.17 284.157 355.221 284.829C357.271 285.502 375.512 296.346 375.512 296.346C375.512 296.346 394.108 281.794 376.715 267.098C359.322 252.402 329.426 241.623 329.426 241.623L318.701 238.347L309.354 237.741L307.978 232.011L285.841 233.398L262.738 244.042L263.653 271.311Z" fill="#2F2E41"/>
<path id="Vector_16" d="M292.87 155.296C302.393 155.296 310.114 146.913 310.114 136.573C310.114 126.233 302.393 117.851 292.87 117.851C283.346 117.851 275.626 126.233 275.626 136.573C275.626 146.913 283.346 155.296 292.87 155.296Z" fill="#9F616A"/>
<path id="Vector_17" d="M277.269 151.622L279.343 151.235C279.343 151.235 283.089 166.894 294.677 169.481C294.677 169.481 300.395 162.044 300.151 160.789C299.907 159.534 304.679 152.839 307.216 156.587C309.754 160.335 306.597 226.358 308.729 227.544C310.86 228.729 315.434 229.986 311.753 234.367C308.072 238.748 293.453 244.642 290.215 242.608C286.976 240.574 280.36 223.339 277.498 217.541C274.636 211.743 270.055 192.017 270.055 192.017C270.055 192.017 264.206 170.418 267.806 165.525C271.405 160.631 277.269 151.622 277.269 151.622Z" fill="#A11AE0"/>
<path id="Vector_18" d="M293.773 232.903C293.387 237.502 292.727 242.069 291.797 246.576C290.952 250.242 289.967 252.456 288.843 252.362C285.976 252.129 284.673 256.695 284.001 261.959C283.282 267.544 283.282 273.915 282.889 276.166C282.367 279.141 279.031 281.411 272.364 280.745C268.393 280.254 264.496 279.216 260.767 277.657C251.766 274.103 252.032 245.286 253.538 223.903C254.459 210.797 255.844 200.476 255.844 200.476C255.844 200.476 253.11 191.621 252.235 185.552C252.061 184.445 251.974 183.324 251.974 182.2C252.108 176.899 261.022 162.572 266.409 153.648C271.802 144.723 279.158 151.27 279.158 151.27L276.598 159.66C276.598 159.66 280.566 166.308 280.595 172.634C280.624 178.961 290.094 183.527 293.494 186.59C295.632 188.515 295.58 214.206 293.773 232.903Z" fill="#2F2E41"/>
<path id="Vector_19" d="M301.26 154.268C301.26 154.268 301.882 155.066 304.727 154.677C308.139 154.21 312.831 155.492 313.921 159.029C315.92 165.516 321.556 191.905 321.556 191.905C321.556 191.905 323.901 222.074 324.956 228.737C326.011 235.4 325.487 241.302 326.527 244.802C327.567 248.302 316.26 238.275 312.092 239.581C307.925 240.886 305.247 223.972 305.771 218.069C306.295 212.167 306.737 205.752 305.291 199.689C303.846 193.627 306.409 177.582 306.313 173.906C306.217 170.23 297.123 160.965 301.26 154.268Z" fill="#2F2E41"/>
<path id="Vector_20" d="M313.461 248.032C313.461 248.032 331.719 258.847 333.467 274.24C335.214 289.633 309.046 259.335 309.046 259.335L313.461 248.032Z" fill="#9F616A"/>
<path id="Vector_21" d="M323.884 237.116C323.884 237.116 329.478 267.734 338.194 266.107C346.909 264.481 333.325 235.354 333.325 235.354L323.884 237.116Z" fill="#9F616A"/>
<path id="Vector_22" d="M353.731 370.594C353.731 370.594 349.268 376.176 348.162 375.327C347.055 374.478 344.511 386.035 346.805 388.245C349.099 390.456 357.935 394.084 358.031 397.759C358.127 401.435 381.827 400.707 382.675 396.854C383.523 393.002 379.702 384.217 377.017 382.607C374.333 380.997 364.405 366.181 364.405 366.181C364.405 366.181 356.63 367.415 353.731 370.594Z" fill="#2F2E41"/>
<path id="Vector_23" opacity="0.1" d="M310.553 266.757C306.319 263.512 294.497 262.707 284.001 261.959C279.396 261.638 275.046 261.324 271.703 260.814C268.483 260.33 265.587 257.135 263.015 252.374C259.117 245.161 255.965 234.343 253.538 223.903C254.459 210.797 255.844 200.476 255.844 200.476C255.844 200.476 253.11 191.621 252.235 185.552C252.852 184.621 253.646 183.844 254.564 183.276C265.697 178.087 276.326 229.148 277.675 237.161C277.699 237.293 277.716 237.419 277.733 237.526C278.388 241.651 285.46 245.179 291.797 246.576C295.701 247.437 299.333 247.494 301.007 246.374C305.404 243.444 318.923 255.173 319.948 255.506C320.974 255.846 316.635 271.43 310.553 266.757Z" fill="black"/>
<path id="Vector_24" d="M254.566 180.132C254.566 180.132 246.474 184.281 250.029 203.67C253.585 223.059 260.747 256.023 271.701 257.672C282.654 259.322 304.465 258.946 310.551 263.615C316.636 268.284 320.973 252.699 319.948 252.362C318.923 252.026 305.402 240.301 301.006 243.233C296.61 246.164 278.789 241.046 277.734 234.383C276.679 227.72 265.881 174.855 254.566 180.132Z" fill="#2F2E41"/>
<path id="Vector_25" d="M312.874 170.834L321.767 193.239C321.767 193.239 322.662 192.754 323.702 196.254C324.742 199.753 325.229 202.829 327.051 205.127C328.873 207.426 336.979 240.213 337.223 241.751C337.466 243.289 326.026 248.59 323.47 244.317C320.914 240.045 312.874 170.834 312.874 170.834Z" fill="#2F2E41"/>
<path id="Vector_26" d="M283.059 136.313C283.72 136.121 283.817 135.168 283.839 134.426C283.958 130.451 286.162 126.372 289.667 125.215C291.012 124.815 292.42 124.731 293.797 124.968C295.762 125.253 297.66 125.94 299.389 126.994C300.302 127.551 301.197 128.223 302.233 128.393C302.917 128.505 305.877 129.44 306.558 129.571C308.055 129.86 309.446 131.314 310.882 130.773C312.256 130.256 312.561 128.324 312.594 126.745C312.67 123.148 310.155 118.169 307.939 115.494C306.258 113.463 303.727 112.525 301.253 112.038C298.362 111.534 295.433 111.34 292.508 111.46C288.548 111.537 284.479 111.869 280.908 113.729C277.337 115.589 274.338 119.292 274.167 123.588C274.131 124.483 274.216 125.381 274.147 126.274C273.978 128.451 272.913 130.418 272.414 132.535C272.056 134.088 272.003 135.705 272.257 137.282C272.511 138.859 273.066 140.361 273.887 141.69C275.212 143.808 277.295 145.723 277.218 148.281L280.092 145.049C280.521 144.694 280.825 144.189 280.952 143.619C281.08 143.049 281.024 142.449 280.794 141.919L279.776 137.612C279.515 136.843 279.484 136.004 279.688 135.215C280.779 132.29 281.957 136.632 283.059 136.313Z" fill="#2F2E41"/>
<path id="Vector_27" d="M151.821 264.196C151.821 323.887 119.138 344.729 78.8219 344.729C38.5055 344.729 5.82263 323.887 5.82263 264.196C5.82263 204.505 78.8219 128.568 78.8219 128.568C78.8219 128.568 151.821 204.505 151.821 264.196Z" fill="#2F7D40"/>
<path id="Vector_28" d="M76.1626 335.598L76.9103 285.642L108.024 223.839L77.0276 277.805L77.3633 255.342L98.8074 210.629L77.4526 249.399L78.0571 208.999L101.019 173.402L78.152 202.646L78.5298 128.568L76.1564 226.634L76.3509 222.589L53.0051 183.789L75.9768 230.355L73.8016 275.474L73.7367 274.276L46.8229 233.446L73.6553 278.507L73.3834 284.15L73.3346 284.235L73.3569 284.698L67.8379 399.17H75.2114L76.0962 340.042L102.863 295.092L76.1626 335.598Z" fill="#181418"/>
</g>
<defs>
<clipPath id="clip0">
<rect width="439" height="402" fill="white"/>
</clipPath>
</defs>
</svg>
