<svg width="467" height="356" viewBox="0 0 467 356" fill="none" xmlns="http://www.w3.org/2000/svg">
<rect width="467" height="356" fill="white"/>
<g id="undraw_Social_life_re_x7t5 1">
<path id="Vector" d="M28.8225 354.931C28.8225 347.628 31.6405 340.625 36.6567 335.462C41.6729 330.298 48.4762 327.397 55.5702 327.397C62.6641 327.397 69.4675 330.298 74.4836 335.462C79.4998 340.625 82.3178 347.628 82.3178 354.931" fill="#1CB735"/>
<path id="Vector_2" d="M55.5702 354.931C55.3784 354.931 55.1946 354.852 55.059 354.713C54.9234 354.573 54.8473 354.384 54.8473 354.186V339.676C54.8473 339.478 54.9234 339.289 55.059 339.149C55.1946 339.01 55.3784 338.932 55.5702 338.932C55.7619 338.932 55.9458 339.01 56.0813 339.149C56.2169 339.289 56.2931 339.478 56.2931 339.676V354.186C56.2931 354.384 56.2169 354.573 56.0813 354.713C55.9458 354.852 55.7619 354.931 55.5702 354.931V354.931Z" fill="#CCCCCC"/>
<path id="Vector_3" d="M55.5698 349.944C55.3971 349.945 55.2301 349.881 55.0993 349.765L46.4245 342.101C46.3518 342.037 46.292 341.96 46.2486 341.872C46.2052 341.785 46.179 341.69 46.1715 341.592C46.164 341.494 46.1753 341.396 46.2048 341.303C46.2344 341.209 46.2815 341.123 46.3436 341.049C46.4056 340.974 46.4814 340.913 46.5665 340.869C46.6515 340.825 46.7442 340.798 46.8393 340.791C46.9343 340.784 47.0298 340.796 47.1202 340.827C47.2106 340.858 47.2942 340.907 47.3661 340.971L56.0411 348.636C56.1531 348.735 56.233 348.867 56.2701 349.014C56.3071 349.161 56.2994 349.316 56.248 349.459C56.1967 349.601 56.1042 349.724 55.9829 349.811C55.8617 349.898 55.7175 349.944 55.5698 349.944V349.944Z" fill="#CCCCCC"/>
<path id="Vector_4" d="M111.234 354.931C111.234 347.628 114.052 340.625 119.068 335.462C124.085 330.298 130.888 327.397 137.982 327.397C145.076 327.397 151.879 330.298 156.895 335.462C161.912 340.625 164.73 347.628 164.73 354.931" fill="#09B639"/>
<path id="Vector_5" d="M137.982 354.931C137.79 354.931 137.606 354.852 137.471 354.713C137.335 354.573 137.259 354.384 137.259 354.186V339.676C137.259 339.478 137.335 339.289 137.471 339.149C137.606 339.01 137.79 338.932 137.982 338.932C138.174 338.932 138.358 339.01 138.493 339.149C138.629 339.289 138.705 339.478 138.705 339.676V354.186C138.705 354.384 138.629 354.573 138.493 354.713C138.358 354.852 138.174 354.931 137.982 354.931V354.931Z" fill="#CCCCCC"/>
<path id="Vector_6" d="M137.982 349.944C137.809 349.945 137.642 349.881 137.511 349.765L128.836 342.101C128.691 341.972 128.601 341.789 128.586 341.593C128.572 341.396 128.634 341.201 128.758 341.051C128.883 340.902 129.061 340.809 129.252 340.794C129.443 340.779 129.632 340.843 129.778 340.971L138.453 348.636C138.565 348.735 138.645 348.867 138.682 349.014C138.719 349.161 138.711 349.316 138.66 349.459C138.608 349.601 138.516 349.724 138.395 349.811C138.273 349.898 138.129 349.944 137.982 349.944V349.944Z" fill="#CCCCCC"/>
<g id="like2">
<path id="Vector_7" d="M166.898 129.78C172.887 129.78 177.742 124.783 177.742 118.618C177.742 112.453 172.887 107.456 166.898 107.456C160.91 107.456 156.055 112.453 156.055 118.618C156.055 124.783 160.91 129.78 166.898 129.78Z" fill="white"/>
<path id="Vector_8" d="M166.898 107.456C164.754 107.456 162.657 108.11 160.874 109.337C159.091 110.563 157.701 112.307 156.88 114.346C156.059 116.386 155.845 118.63 156.263 120.796C156.681 122.961 157.714 124.95 159.231 126.511C160.747 128.072 162.679 129.135 164.783 129.566C166.886 129.996 169.067 129.775 171.048 128.93C173.029 128.086 174.723 126.655 175.915 124.819C177.106 122.984 177.742 120.826 177.742 118.618C177.742 115.658 176.6 112.818 174.566 110.725C172.532 108.632 169.774 107.456 166.898 107.456V107.456ZM164.302 123.492C164.302 123.575 164.27 123.655 164.213 123.714C164.155 123.773 164.078 123.806 163.997 123.806H161.553C161.472 123.806 161.394 123.773 161.337 123.714C161.28 123.655 161.247 123.575 161.247 123.492V117.517C161.247 117.434 161.28 117.354 161.337 117.295C161.394 117.236 161.472 117.203 161.553 117.203H163.997C164.078 117.203 164.155 117.236 164.213 117.295C164.27 117.354 164.302 117.434 164.302 117.517V123.492ZM172.549 118.775C172.549 119.025 172.453 119.265 172.281 119.442C172.109 119.619 171.876 119.718 171.633 119.718V119.734C171.805 119.771 171.96 119.867 172.072 120.007C172.183 120.148 172.244 120.323 172.244 120.505C172.244 120.686 172.183 120.861 172.072 121.002C171.96 121.142 171.805 121.239 171.633 121.275V121.605C171.795 121.605 171.95 121.671 172.065 121.789C172.179 121.907 172.244 122.067 172.244 122.234C172.244 122.401 172.179 122.561 172.065 122.679C171.95 122.796 171.795 122.863 171.633 122.863H165.524C165.443 122.863 165.365 122.83 165.308 122.771C165.251 122.712 165.218 122.632 165.218 122.548V117.517C165.218 115.945 167.662 113.744 167.662 113.744V112.978C167.662 112.745 167.745 112.52 167.895 112.345C168.045 112.171 168.252 112.059 168.477 112.032C168.702 112.004 168.929 112.063 169.115 112.196C169.3 112.329 169.432 112.528 169.485 112.755L169.495 112.801C169.613 113.909 169.351 115.025 168.753 115.954H170.633C170.661 115.951 170.688 115.945 170.717 115.945H171.633C171.39 116.446 171.35 117.025 171.522 117.556C171.694 118.086 172.063 118.525 172.549 118.775V118.775Z" fill="#5E90FF"/>
</g>
<g id="like1">
<path id="Vector_9" d="M182.802 69.5044C191.187 69.5044 197.983 62.5079 197.983 53.8774C197.983 45.2468 191.187 38.2503 182.802 38.2503C174.418 38.2503 167.621 45.2468 167.621 53.8774C167.621 62.5079 174.418 69.5044 182.802 69.5044Z" fill="white"/>
<path id="Vector_10" d="M182.802 38.2504C179.8 38.2504 176.865 39.1668 174.368 40.884C171.872 42.6011 169.926 45.0417 168.777 47.8972C167.628 50.7526 167.327 53.8947 167.913 56.9261C168.499 59.9574 169.945 62.7419 172.068 64.9274C174.191 67.1128 176.896 68.6012 179.841 69.2041C182.786 69.8071 185.838 69.4976 188.612 68.3149C191.386 67.1321 193.757 65.1291 195.425 62.5593C197.093 59.9894 197.983 56.9681 197.983 53.8774C197.983 49.7328 196.384 45.758 193.537 42.8274C190.69 39.8968 186.829 38.2504 182.802 38.2504ZM179.167 60.7004C179.167 60.8172 179.122 60.9291 179.042 61.0117C178.962 61.0942 178.853 61.1406 178.74 61.1406H175.319C175.205 61.1406 175.097 61.0942 175.016 61.0117C174.936 60.9291 174.891 60.8172 174.891 60.7004V52.3367C174.891 52.2199 174.936 52.108 175.016 52.0254C175.097 51.9429 175.205 51.8965 175.319 51.8965H178.74C178.853 51.8965 178.962 51.9429 179.042 52.0254C179.122 52.108 179.167 52.2199 179.167 52.3367V60.7004ZM190.714 54.0975C190.714 54.4477 190.578 54.7836 190.338 55.0312C190.097 55.2789 189.771 55.4181 189.431 55.4181V55.4402C189.672 55.491 189.889 55.626 190.045 55.8225C190.201 56.019 190.286 56.2649 190.286 56.5186C190.286 56.7722 190.201 57.0181 190.045 57.2146C189.889 57.4111 189.672 57.5461 189.431 57.5968V58.0592C189.658 58.0592 189.875 58.152 190.036 58.3171C190.196 58.4822 190.286 58.7061 190.286 58.9396C190.286 59.1731 190.196 59.3971 190.036 59.5622C189.875 59.7273 189.658 59.82 189.431 59.82H180.878C180.765 59.82 180.656 59.7736 180.576 59.6911C180.495 59.6085 180.45 59.4966 180.45 59.3798V52.3367C180.45 50.1357 183.871 47.0543 183.871 47.0543V45.9812C183.871 45.6548 183.987 45.3397 184.197 45.0956C184.408 44.8515 184.698 44.6953 185.013 44.6568C185.327 44.6182 185.645 44.7 185.905 44.8865C186.165 45.073 186.35 45.3513 186.424 45.6686C186.429 45.69 186.433 45.7117 186.437 45.7337C186.865 47.9347 185.398 50.1478 185.398 50.1478H188.031C188.07 50.1441 188.108 50.1357 188.148 50.1357H189.431C189.771 50.1357 190.097 50.2748 190.338 50.5225C190.579 50.7701 190.714 51.106 190.714 51.4563C190.714 51.8065 190.579 52.1424 190.338 52.3901C190.097 52.6377 189.771 52.7769 189.431 52.7769C189.771 52.7769 190.097 52.916 190.338 53.1637C190.578 53.4113 190.714 53.7472 190.714 54.0975V54.0975Z" fill="#5E90FF"/>
</g>
<path id="Vector_11" d="M216.6 221.457C217.706 221.193 218.742 220.682 219.636 219.961C220.529 219.24 221.258 218.326 221.771 217.283C222.284 216.241 222.569 215.095 222.606 213.927C222.642 212.759 222.429 211.597 221.982 210.522L250.611 143.942L234.234 139.696L211.242 206.477C209.539 207.37 208.213 208.875 207.515 210.707C206.818 212.539 206.797 214.571 207.458 216.417C208.118 218.264 209.414 219.796 211.099 220.725C212.784 221.654 214.741 221.915 216.6 221.457V221.457Z" fill="#A0616A"/>
<path id="Vector_12" d="M242.398 164.779L226.47 157.105C226.017 156.886 225.614 156.57 225.291 156.177C224.967 155.784 224.729 155.324 224.594 154.828C224.458 154.333 224.428 153.813 224.506 153.304C224.583 152.795 224.766 152.309 225.043 151.88L234.723 136.831C235.822 134.452 237.793 132.619 240.203 131.733C242.613 130.847 245.266 130.98 247.581 132.104C249.896 133.228 251.683 135.25 252.552 137.728C253.421 140.206 253.3 142.938 252.216 145.324L247.21 162.561C247.067 163.054 246.822 163.51 246.492 163.897C246.162 164.284 245.754 164.594 245.298 164.804C244.841 165.015 244.346 165.122 243.845 165.117C243.345 165.113 242.851 164.998 242.398 164.779H242.398Z" fill="#6C63FF"/>
<path id="Vector_13" d="M251.02 347.019L242.158 347.018L237.942 311.829L251.022 311.83L251.02 347.019Z" fill="#A0616A"/>
<path id="Vector_14" d="M253.281 355.863L224.704 355.861V355.489C224.704 353.986 224.991 352.497 225.55 351.108C226.109 349.719 226.929 348.456 227.962 347.393C228.994 346.33 230.221 345.487 231.57 344.911C232.92 344.336 234.366 344.04 235.827 344.04H235.827L253.281 344.041L253.281 355.863Z" fill="#2F2E41"/>
<path id="Vector_15" d="M280.66 347.019L271.797 347.018L267.581 311.829L280.661 311.83L280.66 347.019Z" fill="#A0616A"/>
<path id="Vector_16" d="M282.92 355.863L254.343 355.861V355.489C254.343 353.986 254.631 352.497 255.19 351.108C255.749 349.719 256.568 348.456 257.601 347.393C258.634 346.33 259.86 345.487 261.209 344.911C262.559 344.336 264.005 344.04 265.466 344.04H265.467L282.921 344.041L282.92 355.863Z" fill="#2F2E41"/>
<path id="Vector_17" d="M280.254 337.23C280.174 337.23 280.094 337.227 280.013 337.221L269.821 336.444C269.123 336.388 268.46 336.102 267.931 335.629C267.403 335.156 267.035 334.521 266.883 333.817L249.186 233.825C249.127 233.548 248.969 233.305 248.743 233.144C248.517 232.983 248.24 232.917 247.968 232.958C247.696 233 247.45 233.146 247.278 233.367C247.107 233.588 247.024 233.868 247.046 234.15L253.329 332.67C253.364 333.13 253.307 333.593 253.16 334.029C253.013 334.466 252.779 334.866 252.475 335.205C252.17 335.544 251.801 335.815 251.39 336C250.979 336.185 250.535 336.281 250.086 336.281H242.325C241.67 336.281 241.031 336.078 240.49 335.698C239.95 335.318 239.533 334.779 239.294 334.152C219.775 281.536 226.844 178.442 226.9 177.405L227.623 176.661L266.499 183.571L266.582 183.653C279.865 193.696 285.613 311.311 283.501 333.685C283.488 334.635 283.148 335.55 282.54 336.265C281.931 336.883 281.11 337.23 280.254 337.23V337.23Z" fill="#2F2E41"/>
<path id="Vector_18" d="M272.106 200.55C271.925 200.55 271.745 200.532 271.568 200.495L225.968 194.472C224.336 194.133 223.171 192.339 223.259 190.298L227.623 165.499C221.84 158.058 227.304 138.84 230.838 133.981L229.471 130.173C229.119 129.185 229.098 128.103 229.411 127.101C229.679 126.157 230.295 125.359 231.128 124.876L249.634 114.755C251.275 113.857 253.2 114.776 253.926 116.8L257.555 126.91L257.5 126.94C266.189 131.734 273.889 136.477 268.106 161.778L275.356 196.721C275.332 197.822 274.901 198.873 274.15 199.659C273.608 200.219 272.874 200.539 272.106 200.55Z" fill="#6C63FF"/>
<g id="phone">
<path id="Vector_19" d="M188.552 157.705L206.113 170.503C206.338 170.671 206.609 170.762 206.887 170.762C207.165 170.762 207.436 170.671 207.661 170.503L212.406 166.836C212.564 166.717 212.693 166.563 212.786 166.385C212.878 166.208 212.93 166.011 212.938 165.81C212.946 165.609 212.91 165.409 212.833 165.224C212.755 165.04 212.639 164.875 212.491 164.743L198.978 152.339C198.801 152.18 198.585 152.071 198.354 152.025C198.122 151.979 197.883 151.997 197.66 152.077L188.867 155.316C188.641 155.401 188.442 155.549 188.292 155.742C188.141 155.936 188.044 156.168 188.012 156.413C187.98 156.659 188.013 156.909 188.108 157.136C188.203 157.364 188.357 157.561 188.552 157.705H188.552Z" fill="#3F3D56"/>
<path id="Vector_20" d="M190.148 156.718L205.974 168.252C206.053 168.313 206.15 168.347 206.249 168.348C206.349 168.349 206.446 168.317 206.527 168.257L210.794 164.958C210.843 164.922 210.884 164.877 210.916 164.825C210.948 164.773 210.969 164.715 210.979 164.654C210.988 164.593 210.986 164.531 210.973 164.471C210.959 164.411 210.934 164.355 210.899 164.305C210.879 164.278 210.857 164.253 210.832 164.231L198.644 153.042C198.581 152.986 198.504 152.948 198.421 152.933C198.339 152.917 198.254 152.924 198.175 152.953L190.255 155.87C190.176 155.902 190.106 155.955 190.054 156.024C190.001 156.092 189.968 156.175 189.957 156.261C189.946 156.348 189.958 156.436 189.992 156.517C190.025 156.597 190.079 156.667 190.148 156.718V156.718Z" fill="white"/>
<path id="Vector_21" d="M212.285 163.168C212.576 163.45 212.845 163.755 213.09 164.081L248.856 161.537L252.693 153.488L265.25 157.862L259.803 172.79C259.363 173.995 258.554 175.022 257.499 175.715C256.444 176.408 255.199 176.73 253.951 176.632L213.281 173.457C212.38 174.745 211.12 175.719 209.669 176.252C208.217 176.784 206.642 176.849 205.154 176.437C203.666 176.026 202.335 175.158 201.337 173.948C200.34 172.739 199.724 171.246 199.571 169.668C199.418 168.089 199.736 166.5 200.482 165.112C201.228 163.724 202.367 162.603 203.747 161.897C205.127 161.192 206.683 160.935 208.208 161.162C209.733 161.389 211.155 162.089 212.285 163.168V163.168Z" fill="#A0616A"/>
</g>
<path id="Vector_22" d="M243.693 156.18C243.515 155.735 243.432 155.256 243.45 154.775C243.468 154.294 243.587 153.823 243.798 153.394L251.174 138.399C251.929 136.064 253.553 134.131 255.69 133.026C257.827 131.921 260.303 131.733 262.574 132.504C264.846 133.275 266.728 134.941 267.807 137.138C268.887 139.335 269.076 141.883 268.334 144.223L265.493 160.829C265.412 161.303 265.233 161.753 264.967 162.149C264.702 162.545 264.357 162.878 263.955 163.124C263.554 163.371 263.105 163.525 262.641 163.577C262.176 163.629 261.706 163.577 261.262 163.425L245.673 158.083C245.23 157.931 244.823 157.682 244.481 157.354C244.139 157.026 243.87 156.625 243.693 156.18Z" fill="#6C63FF"/>
<path id="h3" d="M187.874 143.937C187.727 144.078 187.534 144.156 187.333 144.156C187.133 144.156 186.94 144.078 186.793 143.937L186.378 143.551C182.982 140.343 181.021 138.259 181.021 135.661C181.021 133.542 182.324 131.904 184.367 131.904C184.933 131.907 185.491 132.037 186.004 132.285C186.516 132.532 186.97 132.892 187.335 133.338C187.698 132.892 188.152 132.532 188.664 132.285C189.176 132.037 189.734 131.907 190.3 131.904C192.346 131.904 193.646 133.536 193.646 135.661C193.646 138.254 191.685 140.338 188.289 143.551L187.874 143.937Z" fill="#FF6584"/>
<path id="h2" d="M163.067 99.491C162.786 99.7607 162.416 99.9106 162.032 99.9106C161.647 99.9106 161.277 99.7607 160.996 99.491L160.201 98.7507C153.693 92.6046 149.936 88.6114 149.936 83.633C149.936 79.5721 152.432 76.4339 156.347 76.4339C157.432 76.4402 158.502 76.6892 159.484 77.1636C160.466 77.6379 161.336 78.3263 162.034 79.1811C162.731 78.3265 163.6 77.6381 164.581 77.1637C165.562 76.6893 166.632 76.4403 167.716 76.4339C171.636 76.4339 174.127 79.5617 174.127 83.633C174.127 88.601 170.37 92.5942 163.862 98.7507L163.067 99.491Z" fill="#FF6584"/>
<path id="h1" d="M164.1 29.9471C163.734 30.2974 163.254 30.4922 162.754 30.4922C162.255 30.4922 161.775 30.2974 161.409 29.9471L160.377 28.9857C151.924 21.0029 147.044 15.8166 147.044 9.35045C147.044 4.07602 150.287 1.52588e-05 155.371 1.52588e-05C156.78 0.00828497 158.17 0.331676 159.446 0.947784C160.721 1.56389 161.851 2.458 162.758 3.5682C163.663 2.45817 164.792 1.56409 166.066 0.947955C167.341 0.331817 168.73 0.00835417 170.138 1.52588e-05C175.229 1.52588e-05 178.465 4.06249 178.465 9.35045C178.465 15.803 173.584 20.9894 165.132 28.9857L164.1 29.9471Z" fill="#FF6584"/>
<path id="Vector_23" d="M466.277 356H0.72291C0.531183 356 0.347318 355.922 0.211746 355.782C0.076174 355.643 0 355.453 0 355.256C0 355.058 0.076174 354.869 0.211746 354.73C0.347318 354.59 0.531183 354.512 0.72291 354.512H466.277C466.469 354.512 466.653 354.59 466.788 354.73C466.924 354.869 467 355.058 467 355.256C467 355.453 466.924 355.643 466.788 355.782C466.653 355.922 466.469 356 466.277 356Z" fill="#CCCCCC"/>
<g id="head">
<path id="Vector_24" d="M231.385 116.352C241.191 116.352 249.14 108.169 249.14 98.0754C249.14 87.9813 241.191 79.7984 231.385 79.7984C221.579 79.7984 213.629 87.9813 213.629 98.0754C213.629 108.169 221.579 116.352 231.385 116.352Z" fill="#A0616A"/>
<path id="Vector_25" d="M241.358 83.6432C249.343 83.6432 255.816 76.9799 255.816 68.7603C255.816 60.5407 249.343 53.8774 241.358 53.8774C233.373 53.8774 226.9 60.5407 226.9 68.7603C226.9 76.9799 233.373 83.6432 241.358 83.6432Z" fill="#2F2E41"/>
<path id="Vector_26" d="M214.577 100.335C213.164 100.488 211.662 100.627 210.391 99.9738C209.711 99.5769 209.132 99.0206 208.7 98.35C208.269 97.6794 207.997 96.9134 207.906 96.1143C205.213 77.69 220.432 79.2055 222.233 78.4075C223.443 77.8711 224.334 76.7914 225.416 76.0166C227.781 74.3219 230.85 74.198 233.731 74.134C237.152 74.0581 240.696 74.0058 243.836 75.4057C246.658 76.7672 249.004 78.9928 250.552 81.7783C252.084 84.552 253.206 87.5447 253.882 90.6583C254.753 94.2205 255.345 97.9886 254.449 101.544C253.709 104.246 252.167 106.643 250.039 108.399C247.911 110.155 245.302 111.181 242.579 111.336C243.747 107.089 241.198 102.382 237.415 100.304C234.363 98.7584 230.89 98.3327 227.572 99.097C225.419 99.5459 223.236 99.8258 221.042 99.934C218.889 100.017 216.305 100.147 214.577 100.335Z" fill="#2F2E41"/>
</g>
<path id="Vector_27" d="M446.478 157.577C446.478 121.662 418.175 36.4372 383.261 36.4372C348.347 36.4372 320.043 121.662 320.043 157.577C320.056 174.827 326.722 191.367 338.576 203.56C350.43 215.753 366.503 222.602 383.261 222.602C400.019 222.602 416.091 215.753 427.945 203.56C439.799 191.367 446.465 174.827 446.478 157.577V157.577Z" fill="#0EBD89"/>
<path id="Vector_28" d="M383.261 355.256C383.069 355.256 382.885 355.177 382.749 355.038C382.614 354.898 382.538 354.709 382.538 354.512V149.023C382.538 148.826 382.614 148.637 382.749 148.497C382.885 148.357 383.069 148.279 383.261 148.279C383.452 148.279 383.636 148.357 383.772 148.497C383.907 148.637 383.984 148.826 383.984 149.023V354.512C383.984 354.709 383.907 354.898 383.772 355.038C383.636 355.177 383.452 355.256 383.261 355.256V355.256Z" fill="#CCCCCC"/>
<path id="Vector_29" d="M383.261 177.405C383.157 177.406 383.055 177.383 382.961 177.338C382.866 177.294 382.782 177.23 382.714 177.149L346.357 133.988C346.232 133.839 346.169 133.645 346.183 133.449C346.197 133.252 346.286 133.069 346.431 132.94C346.575 132.811 346.764 132.746 346.955 132.76C347.145 132.774 347.323 132.865 347.449 133.013L383.807 176.174C383.898 176.281 383.956 176.414 383.976 176.555C383.996 176.696 383.976 176.84 383.918 176.97C383.861 177.1 383.768 177.21 383.652 177.287C383.535 177.364 383.4 177.405 383.261 177.405Z" fill="#CCCCCC"/>
<path id="Vector_30" d="M383.261 202.314C383.118 202.314 382.978 202.27 382.859 202.188C382.74 202.107 382.648 201.99 382.593 201.854C382.538 201.718 382.524 201.569 382.552 201.425C382.58 201.28 382.648 201.148 382.75 201.044L403.409 179.777C403.476 179.708 403.555 179.653 403.643 179.616C403.731 179.579 403.825 179.559 403.92 179.559C404.015 179.559 404.109 179.579 404.196 179.616C404.284 179.653 404.364 179.708 404.431 179.777C404.498 179.846 404.551 179.928 404.587 180.019C404.624 180.109 404.643 180.206 404.643 180.303C404.643 180.401 404.624 180.498 404.587 180.588C404.551 180.678 404.498 180.76 404.431 180.83L383.772 202.096C383.705 202.165 383.625 202.22 383.537 202.257C383.45 202.295 383.356 202.314 383.261 202.314Z" fill="#CCCCCC"/>
<path id="Vector_31" d="M383.261 284.17C383.118 284.17 382.978 284.126 382.859 284.044C382.74 283.962 382.648 283.846 382.593 283.71C382.538 283.574 382.524 283.425 382.552 283.28C382.58 283.136 382.648 283.004 382.75 282.899L403.409 261.633C403.544 261.494 403.728 261.415 403.92 261.415C404.111 261.415 404.295 261.494 404.431 261.633C404.566 261.773 404.643 261.962 404.643 262.159C404.643 262.357 404.566 262.546 404.431 262.685L383.772 283.952C383.705 284.021 383.625 284.076 383.537 284.113C383.45 284.151 383.356 284.17 383.261 284.17V284.17Z" fill="#CCCCCC"/>
</g>
</svg>
